<svg viewBox="0 0 14 14" xmlns="http://www.w3.org/2000/svg" xmlns:xlink="http://www.w3.org/1999/xlink" width="14.000000" height="14.000000" fill="none">
	<mask id="mask_6" width="14.000002" height="14.000000" x="0.000000" y="0.000000" maskUnits="userSpaceOnUse">
		<g filter="url(#pixso_custom_mask_type_luminance)">
			<g id="mask-2">
				<path id="path-1" d="M14 0L14 14L8.44667 14L8.44667 4.27246e-06L14 0ZM5.58524 14L0 14L0 0L5.58524 0L5.58524 14Z" fill="rgb(255,255,255)" fill-rule="nonzero" />
			</g>
		</g>
	</mask>
	<mask id="mask_5" width="14.000002" height="14.023334" x="0.000000" y="0.000000" maskUnits="userSpaceOnUse">
		<g filter="url(#pixso_custom_mask_type_luminance)">
			<g id="mask-2">
				<path id="path-1" d="M14 6.84261e-07L14 14L8.44667 14.0233L8.44667 0.0233347L14 6.84261e-07ZM5.57667 14L0 14L0 6.84261e-07L5.57667 0L5.57667 14Z" fill="rgb(255,255,255)" fill-rule="nonzero" />
			</g>
		</g>
	</mask>
	<defs>
		<linearGradient id="paint_custom_gradient_6">
			<stop stop-color="rgb(250,100,1)" offset="0.263296664" stop-opacity="1" />
			<stop stop-color="rgb(249.9,102.687,1)" offset="0.349490285" stop-opacity="1" />
			<stop stop-color="rgb(247,181,1)" offset="0.494946986" stop-opacity="1" />
			<stop stop-color="rgb(11,184,178)" offset="0.690560162" stop-opacity="1" />
			<stop stop-color="rgb(1,145,255)" offset="0.858591199" stop-opacity="1" />
			<stop stop-color="rgb(182,32,224)" offset="1" stop-opacity="1" />
		</linearGradient>
		<filter id="pixso_custom_mask_type_luminance">
			<feColorMatrix type="matrix" values="1 0 0 0 0 0 1 0 0 0 0 0 1 0 0 0 0 0 1 0 " />
		</filter>
	</defs>
	<rect id="居中对齐" width="14.000002" height="14.000000" x="0.000000" y="0.000000" fill="rgb(0,0,0)" fill-opacity="0" />
	<g id="ic_ict_center_alignment-居中对齐/base/ic_ict_center_alignment">
		<g id="mask" mask="url(#mask_5)">
			<rect id="矩形 9" width="9.986669" height="3.994667" x="0.000000" y="0.000000" rx="0.998667" fill="rgb(255,255,255)" fill-opacity="0" transform="matrix(-1,0,0,1,11.9933,7.98)" />
			<rect id="矩形 9" width="9.986669" height="3.994667" x="0.000000" y="0.000000" rx="0.998667" stroke="rgb(25,25,25)" stroke-width="1.20000005" transform="matrix(-1,0,0,1,11.9933,7.98)" />
		</g>
		<g id="mask" mask="url(#mask_6)">
			<rect id="矩形 10" width="7.000001" height="3.000000" x="0.000000" y="0.000000" rx="1.000000" fill="rgb(255,255,255)" fill-opacity="0" transform="matrix(-1,0,0,1,10.5,2.00667)" />
			<rect id="矩形 10" width="7.000001" height="3.000000" x="0.000000" y="0.000000" rx="1.000000" stroke="rgb(25,25,25)" stroke-width="1.20000005" transform="matrix(-1,0,0,1,10.5,2.00667)" />
		</g>
		<line id="path7" x1="4.85263408e-05" x2="12.3468046" y1="0" y2="0" stroke="rgb(25,25,25)" stroke-linecap="round" stroke-linejoin="round" stroke-width="1.20000005" transform="matrix(0,1,-1,0,7.00195,0.839996)" />
	</g>
</svg>
