<svg viewBox="0 0 6 6" xmlns="http://www.w3.org/2000/svg" xmlns:xlink="http://www.w3.org/1999/xlink" width="6.000000" height="6.000000" fill="none">
	<rect id="下拉" width="6.000000" height="6.000000" x="0.000000" y="0.000000" />
	<rect id="矩形 36" width="6.000000" height="6.000000" x="0.000000" y="0.000000" fill="rgb(196,196,196)" fill-opacity="0" />
	<path id="矢量 368" d="M3.55944 4.57091L5.57083 2.56972C6.09403 2.04923 5.72281 1.16 4.98488 1.16L0.982375 1.18037C0.248476 1.18037 -0.115544 2.07244 0.404728 2.59007L2.39573 4.57091C2.71751 4.89108 3.23754 4.89108 3.55944 4.57091Z" fill="rgb(25,25,25)" fill-rule="evenodd" />
	<path id="矢量 368" d="M3.55944 4.57091C3.23754 4.89108 2.71751 4.89108 2.39573 4.57091L0.404728 2.59007C-0.115544 2.07244 0.248476 1.18037 0.982375 1.18037L4.98488 1.16C5.72281 1.16 6.09403 2.04923 5.57083 2.56972L3.55944 4.57091Z" fill-rule="evenodd" stroke="rgb(25,25,25)" stroke-opacity="0" stroke-linecap="round" stroke-linejoin="round" stroke-width="0.548243403" />
</svg>
