<svg viewBox="0 0 14 14" xmlns="http://www.w3.org/2000/svg" xmlns:xlink="http://www.w3.org/1999/xlink" width="14.000000" height="14.000000" fill="none">
	<rect id="颜色" width="14.000000" height="14.000000" x="0.000000" y="0.000000" />
	<g id="组合 23">
		<path id="矢量 14" d="M1.875 12L10.625 12C11.1082 12 11.5 12.3918 11.5 12.875C11.5 13.3583 11.1082 13.75 10.625 13.75L1.875 13.75C1.39175 13.75 1 13.3583 1 12.875C1 12.3918 1.39175 12 1.875 12Z" fill="rgb(25,25,25)" fill-rule="evenodd" />
		<path id="矢量 16" d="M2.48122 6.61409L4.43585 4.50324C4.08836 4.18763 4.06024 3.65091 4.37285 3.30072L6.73162 0.658368C7.05539 0.295677 7.61274 0.266467 7.97264 0.593328L12.4632 4.67155C12.8187 4.99448 12.8475 5.54367 12.5276 5.902L10.1609 8.55318C9.84875 8.90291 9.31132 8.93107 8.96427 8.61589L6.99814 10.7392C6.67205 11.0913 6.12315 11.1151 5.76786 10.7924L5.15289 10.2339L4.45775 11.0126C4.29174 11.1986 4.05428 11.3049 3.80499 11.3049L1.42524 11.3049C1.32797 11.3049 1.23419 11.2687 1.16218 11.2033C1.00318 11.0589 0.99031 10.8133 1.13335 10.6531L3.13971 8.40555L2.53497 7.85633C2.17479 7.52922 2.15064 6.97109 2.48122 6.61409ZM5.82179 3.21023L6.80699 2.10661C7.13076 1.74392 7.68811 1.71471 8.04801 2.04157L11.0273 4.74734C11.3829 5.07026 11.4117 5.61945 11.0918 5.97777L10.1066 7.0814C9.78286 7.44409 9.2255 7.4733 8.8656 7.14644L5.88628 4.44067C5.5307 4.11775 5.50192 3.56855 5.82179 3.21023ZM3.97699 7.78613L5.69856 9.34964C6.05251 9.67109 6.59895 9.64891 6.92567 9.29982L8.20834 7.92935L5.19115 5.18916L3.92641 6.54048C3.59269 6.89705 3.61545 7.45779 3.97699 7.78613Z" fill="rgb(25,25,25)" fill-rule="evenodd" />
	</g>
</svg>
