<svg viewBox="0 0 14 14" xmlns="http://www.w3.org/2000/svg" xmlns:xlink="http://www.w3.org/1999/xlink" width="14.000000" height="14.000000" fill="none">
	<rect id="引用" width="14.000000" height="14.000000" x="0.000000" y="0.000000" />
	<path id="矢量 353" d="M0.50254 6.292L1.67654 5.638C1.75427 5.59466 1.82496 5.54188 1.8886 5.47966C1.95225 5.41744 2.00661 5.34796 2.0517 5.27123C2.09679 5.1945 2.13103 5.11319 2.15441 5.02732C2.1778 4.94144 2.1895 4.854 2.18954 4.765L2.18954 2C2.18954 1.9345 2.19275 1.86915 2.19917 1.80397C2.20559 1.73878 2.21519 1.67406 2.22797 1.60982C2.24075 1.54558 2.25665 1.48211 2.27566 1.41943C2.29467 1.35675 2.31671 1.29515 2.34178 1.23463C2.36685 1.17412 2.39482 1.11497 2.4257 1.05721C2.45658 0.999439 2.49021 0.943323 2.5266 0.88886C2.56299 0.834396 2.60196 0.781848 2.64352 0.731214C2.68507 0.680579 2.72901 0.632104 2.77533 0.585786C2.82164 0.539469 2.87012 0.495533 2.92075 0.453979C2.97139 0.412425 3.02394 0.373452 3.0784 0.337061C3.13286 0.30067 3.18898 0.267035 3.24675 0.236157C3.30451 0.20528 3.36366 0.177308 3.42417 0.152241C3.48469 0.127174 3.54629 0.105134 3.60897 0.0861193C3.67165 0.067105 3.73512 0.0512083 3.79936 0.0384294C3.8636 0.0256505 3.92832 0.0160509 3.99351 0.00963055C4.05869 0.00321018 4.12404 0 4.18954 0L5.18954 0C5.22237 0 5.25489 0.00320245 5.28709 0.00960736C5.31928 0.0160123 5.35055 0.0254966 5.38088 0.0380602C5.41121 0.0506239 5.44003 0.0660256 5.46732 0.0842652C5.49462 0.102505 5.51988 0.123232 5.54309 0.146447C5.56631 0.169661 5.58703 0.194917 5.60527 0.222215C5.62351 0.249512 5.63892 0.278327 5.65148 0.308658C5.66404 0.33899 5.67353 0.370255 5.67993 0.402455C5.68634 0.434655 5.68954 0.46717 5.68954 0.5C5.68954 0.53283 5.68634 0.565346 5.67993 0.597545C5.67353 0.629745 5.66404 0.66101 5.65148 0.691342C5.63892 0.721673 5.62351 0.750487 5.60527 0.777785C5.58703 0.805083 5.56631 0.830339 5.54309 0.853553C5.51988 0.876768 5.49462 0.897495 5.46732 0.915735C5.44003 0.933974 5.41121 0.949376 5.38088 0.96194C5.35055 0.974503 5.31928 0.983988 5.28709 0.990393C5.25489 0.996798 5.22237 1 5.18954 1L4.67269 1C4.60703 1 4.542 1.0064 4.4776 1.01921C4.4132 1.03202 4.35067 1.05099 4.29 1.07612C4.22934 1.10125 4.17171 1.13205 4.11712 1.16853C4.06252 1.20501 4.01201 1.24646 3.96558 1.29289C3.91915 1.33932 3.8777 1.38983 3.84122 1.44443C3.80474 1.49902 3.77394 1.55665 3.74881 1.61732C3.72368 1.67798 3.70471 1.74051 3.6919 1.80491C3.67909 1.86931 3.67269 1.93434 3.67269 2L3.67269 4.923C3.67272 5.0132 3.66668 5.10299 3.65456 5.19237C3.64245 5.28175 3.62437 5.36991 3.60033 5.45685C3.57628 5.54378 3.5465 5.6287 3.51096 5.71161C3.47543 5.79451 3.43448 5.87465 3.3881 5.95201C3.34173 6.02938 3.29035 6.10326 3.23398 6.17368C3.17761 6.24409 3.11675 6.31039 3.05141 6.37257C2.98607 6.43475 2.91684 6.49224 2.84372 6.54506C2.7706 6.59787 2.69425 6.64552 2.61469 6.688L2.02969 7L2.61469 7.312C2.69422 7.35446 2.77053 7.40209 2.84362 7.45487C2.91671 7.50765 2.98591 7.56512 3.05123 7.62726C3.11655 7.6894 3.17739 7.75566 3.23375 7.82603C3.29011 7.8964 3.34147 7.97024 3.38785 8.04756C3.43422 8.12488 3.47518 8.20496 3.51072 8.28782C3.54626 8.37068 3.57606 8.45555 3.60013 8.54243C3.62419 8.62932 3.6423 8.71743 3.65445 8.80676C3.66659 8.8961 3.67268 8.98584 3.67269 9.076L3.67269 12C3.67269 12.0657 3.67909 12.1307 3.6919 12.1951C3.70471 12.2595 3.72368 12.322 3.74881 12.3827C3.77393 12.4433 3.80474 12.501 3.84122 12.5556C3.8777 12.6102 3.91915 12.6607 3.96558 12.7071C4.01201 12.7535 4.06252 12.795 4.11712 12.8315C4.17171 12.8679 4.22934 12.8988 4.29 12.9239C4.35067 12.949 4.4132 12.968 4.4776 12.9808C4.542 12.9936 4.60703 13 4.67269 13L5.18954 13C5.22237 13 5.25489 13.0032 5.28709 13.0096C5.31928 13.016 5.35055 13.0255 5.38088 13.0381C5.41121 13.0506 5.44003 13.066 5.46732 13.0843C5.49462 13.1025 5.51988 13.1232 5.54309 13.1464C5.56631 13.1697 5.58703 13.1949 5.60527 13.2222C5.62351 13.2495 5.63892 13.2783 5.65148 13.3087C5.66404 13.339 5.67353 13.3703 5.67993 13.4025C5.68634 13.4347 5.68954 13.4672 5.68954 13.5C5.68954 13.5328 5.68634 13.5653 5.67993 13.5975C5.67353 13.6297 5.66404 13.661 5.65148 13.6913C5.63892 13.7217 5.62351 13.7505 5.60527 13.7778C5.58703 13.8051 5.56631 13.8303 5.54309 13.8536C5.51988 13.8768 5.49462 13.8975 5.46732 13.9157C5.44003 13.934 5.41121 13.9494 5.38088 13.9619C5.35055 13.9745 5.31928 13.984 5.28709 13.9904C5.25489 13.9968 5.22237 14 5.18954 14L4.18954 14C4.12404 14 4.05869 13.9968 3.99351 13.9904C3.92832 13.9839 3.8636 13.9743 3.79936 13.9616C3.73512 13.9488 3.67165 13.9329 3.60897 13.9139C3.54629 13.8949 3.48469 13.8728 3.42417 13.8478C3.36366 13.8227 3.30451 13.7947 3.24675 13.7638C3.18898 13.733 3.13286 13.6993 3.0784 13.6629C3.02394 13.6265 2.97139 13.5876 2.92075 13.546C2.87012 13.5045 2.82164 13.4605 2.77533 13.4142C2.72901 13.3679 2.68507 13.3194 2.64352 13.2688C2.60196 13.2182 2.56299 13.1656 2.5266 13.1111C2.49021 13.0567 2.45658 13.0006 2.4257 12.9428C2.39482 12.885 2.36685 12.8259 2.34178 12.7654C2.31671 12.7049 2.29467 12.6433 2.27566 12.5806C2.25664 12.5179 2.24075 12.4544 2.22797 12.3902C2.21519 12.3259 2.20559 12.2612 2.19917 12.196C2.19275 12.1308 2.18954 12.0655 2.18954 12L2.18954 9.235C2.1895 9.146 2.1778 9.05856 2.15441 8.97268C2.13103 8.88681 2.09679 8.8055 2.0517 8.72877C2.00661 8.65204 1.95225 8.58256 1.8886 8.52034C1.82496 8.45813 1.75427 8.40534 1.67654 8.362L0.50254 7.708C0.429118 7.68234 0.361328 7.64613 0.299171 7.59938C0.237013 7.55262 0.183425 7.49754 0.138406 7.43411C0.0933869 7.37069 0.0590646 7.30192 0.0354387 7.22782C0.0118129 7.15372 0 7.07778 0 7C0 6.92222 0.0118129 6.84628 0.0354387 6.77218C0.0590646 6.69808 0.0933869 6.62931 0.138406 6.56589C0.183425 6.50246 0.237013 6.44737 0.299171 6.40062C0.361328 6.35387 0.429118 6.31766 0.50254 6.292Z" fill="rgb(0,0,0)" fill-rule="nonzero" />
	<path id="矢量 354" d="M0.50254 6.292L1.67654 5.638C1.75427 5.59466 1.82496 5.54188 1.8886 5.47966C1.95225 5.41744 2.00661 5.34796 2.0517 5.27123C2.09679 5.1945 2.13103 5.11319 2.15441 5.02732C2.1778 4.94144 2.1895 4.854 2.18954 4.765L2.18954 2C2.18954 1.9345 2.19275 1.86915 2.19917 1.80397C2.20559 1.73878 2.21519 1.67406 2.22797 1.60982C2.24075 1.54558 2.25665 1.48211 2.27566 1.41943C2.29467 1.35675 2.31671 1.29515 2.34178 1.23463C2.36685 1.17412 2.39482 1.11497 2.4257 1.05721C2.45658 0.999439 2.49021 0.943323 2.5266 0.88886C2.56299 0.834396 2.60196 0.781848 2.64352 0.731214C2.68507 0.680579 2.72901 0.632104 2.77533 0.585786C2.82164 0.539469 2.87012 0.495533 2.92075 0.453979C2.97139 0.412425 3.02394 0.373452 3.0784 0.337061C3.13286 0.30067 3.18898 0.267035 3.24675 0.236157C3.30451 0.20528 3.36366 0.177308 3.42417 0.152241C3.48469 0.127174 3.54629 0.105134 3.60897 0.0861193C3.67165 0.067105 3.73512 0.0512083 3.79936 0.0384294C3.8636 0.0256505 3.92832 0.0160509 3.99351 0.00963055C4.05869 0.00321018 4.12404 0 4.18954 0L5.18954 0C5.22237 0 5.25489 0.00320245 5.28709 0.00960736C5.31928 0.0160123 5.35055 0.0254966 5.38088 0.0380602C5.41121 0.0506239 5.44003 0.0660256 5.46732 0.0842652C5.49462 0.102505 5.51988 0.123232 5.54309 0.146447C5.56631 0.169661 5.58703 0.194917 5.60527 0.222215C5.62351 0.249512 5.63892 0.278327 5.65148 0.308658C5.66404 0.33899 5.67353 0.370255 5.67993 0.402455C5.68634 0.434655 5.68954 0.46717 5.68954 0.5C5.68954 0.53283 5.68634 0.565346 5.67993 0.597545C5.67353 0.629745 5.66404 0.66101 5.65148 0.691342C5.63892 0.721673 5.62351 0.750487 5.60527 0.777785C5.58703 0.805083 5.56631 0.830339 5.54309 0.853553C5.51988 0.876768 5.49462 0.897495 5.46732 0.915735C5.44003 0.933974 5.41121 0.949376 5.38088 0.96194C5.35055 0.974503 5.31928 0.983988 5.28709 0.990393C5.25489 0.996798 5.22237 1 5.18954 1L4.67269 1C4.60703 1 4.542 1.0064 4.4776 1.01921C4.4132 1.03202 4.35067 1.05099 4.29 1.07612C4.22934 1.10125 4.17171 1.13205 4.11712 1.16853C4.06252 1.20501 4.01201 1.24646 3.96558 1.29289C3.91915 1.33932 3.8777 1.38983 3.84122 1.44443C3.80474 1.49902 3.77394 1.55665 3.74881 1.61732C3.72368 1.67798 3.70471 1.74051 3.6919 1.80491C3.67909 1.86931 3.67269 1.93434 3.67269 2L3.67269 4.923C3.67272 5.0132 3.66668 5.10299 3.65456 5.19237C3.64245 5.28175 3.62437 5.36991 3.60033 5.45685C3.57628 5.54378 3.5465 5.6287 3.51096 5.71161C3.47543 5.79451 3.43448 5.87465 3.3881 5.95201C3.34173 6.02938 3.29035 6.10326 3.23398 6.17368C3.17761 6.24409 3.11675 6.31039 3.05141 6.37257C2.98607 6.43475 2.91684 6.49224 2.84372 6.54506C2.7706 6.59787 2.69425 6.64552 2.61469 6.688L2.02969 7L2.61469 7.312C2.69422 7.35446 2.77053 7.40209 2.84362 7.45487C2.91671 7.50765 2.98591 7.56512 3.05123 7.62726C3.11655 7.6894 3.17739 7.75566 3.23375 7.82603C3.29011 7.8964 3.34147 7.97024 3.38785 8.04756C3.43422 8.12488 3.47518 8.20496 3.51072 8.28782C3.54626 8.37068 3.57606 8.45555 3.60013 8.54243C3.62419 8.62932 3.6423 8.71743 3.65445 8.80676C3.66659 8.8961 3.67268 8.98584 3.67269 9.076L3.67269 12C3.67269 12.0657 3.67909 12.1307 3.6919 12.1951C3.70471 12.2595 3.72368 12.322 3.74881 12.3827C3.77393 12.4433 3.80474 12.501 3.84122 12.5556C3.8777 12.6102 3.91915 12.6607 3.96558 12.7071C4.01201 12.7535 4.06252 12.795 4.11712 12.8315C4.17171 12.8679 4.22934 12.8988 4.29 12.9239C4.35067 12.949 4.4132 12.968 4.4776 12.9808C4.542 12.9936 4.60703 13 4.67269 13L5.18954 13C5.22237 13 5.25489 13.0032 5.28709 13.0096C5.31928 13.016 5.35055 13.0255 5.38088 13.0381C5.41121 13.0506 5.44003 13.066 5.46732 13.0843C5.49462 13.1025 5.51988 13.1232 5.54309 13.1464C5.56631 13.1697 5.58703 13.1949 5.60527 13.2222C5.62351 13.2495 5.63892 13.2783 5.65148 13.3087C5.66404 13.339 5.67353 13.3703 5.67993 13.4025C5.68634 13.4347 5.68954 13.4672 5.68954 13.5C5.68954 13.5328 5.68634 13.5653 5.67993 13.5975C5.67353 13.6297 5.66404 13.661 5.65148 13.6913C5.63892 13.7217 5.62351 13.7505 5.60527 13.7778C5.58703 13.8051 5.56631 13.8303 5.54309 13.8536C5.51988 13.8768 5.49462 13.8975 5.46732 13.9157C5.44003 13.934 5.41121 13.9494 5.38088 13.9619C5.35055 13.9745 5.31928 13.984 5.28709 13.9904C5.25489 13.9968 5.22237 14 5.18954 14L4.18954 14C4.12404 14 4.05869 13.9968 3.99351 13.9904C3.92832 13.9839 3.8636 13.9743 3.79936 13.9616C3.73512 13.9488 3.67165 13.9329 3.60897 13.9139C3.54629 13.8949 3.48469 13.8728 3.42417 13.8478C3.36366 13.8227 3.30451 13.7947 3.24675 13.7638C3.18898 13.733 3.13286 13.6993 3.0784 13.6629C3.02394 13.6265 2.97139 13.5876 2.92075 13.546C2.87012 13.5045 2.82164 13.4605 2.77533 13.4142C2.72901 13.3679 2.68507 13.3194 2.64352 13.2688C2.60196 13.2182 2.56299 13.1656 2.5266 13.1111C2.49021 13.0567 2.45658 13.0006 2.4257 12.9428C2.39482 12.885 2.36685 12.8259 2.34178 12.7654C2.31671 12.7049 2.29467 12.6433 2.27566 12.5806C2.25664 12.5179 2.24075 12.4544 2.22797 12.3902C2.21519 12.3259 2.20559 12.2612 2.19917 12.196C2.19275 12.1308 2.18954 12.0655 2.18954 12L2.18954 9.235C2.1895 9.146 2.1778 9.05856 2.15441 8.97268C2.13103 8.88681 2.09679 8.8055 2.0517 8.72877C2.00661 8.65204 1.95225 8.58256 1.8886 8.52034C1.82496 8.45813 1.75427 8.40534 1.67654 8.362L0.50254 7.708C0.429118 7.68234 0.361328 7.64613 0.299171 7.59938C0.237013 7.55262 0.183425 7.49754 0.138406 7.43411C0.0933869 7.37069 0.0590646 7.30192 0.0354387 7.22782C0.0118129 7.15372 0 7.07778 0 7C0 6.92222 0.0118129 6.84628 0.0354387 6.77218C0.0590646 6.69808 0.0933869 6.62931 0.138406 6.56589C0.183425 6.50246 0.237013 6.44737 0.299171 6.40062C0.361328 6.35387 0.429118 6.31766 0.50254 6.292Z" fill="rgb(0,0,0)" fill-rule="nonzero" transform="matrix(-1,0,0,1,13.9458,0)" />
</svg>
