<svg viewBox="0 0 14 14" xmlns="http://www.w3.org/2000/svg" xmlns:xlink="http://www.w3.org/1999/xlink" width="14.000000" height="14.000000" fill="none">
	<defs>
		<linearGradient id="paint_custom_gradient_0">
			<stop stop-color="rgb(250,100,1)" offset="0.263296664" stop-opacity="1" />
			<stop stop-color="rgb(249.9,102.687,1)" offset="0.349490285" stop-opacity="1" />
			<stop stop-color="rgb(247,181,1)" offset="0.494946986" stop-opacity="1" />
			<stop stop-color="rgb(11,184,178)" offset="0.690560162" stop-opacity="1" />
			<stop stop-color="rgb(1,145,255)" offset="0.858591199" stop-opacity="1" />
			<stop stop-color="rgb(182,32,224)" offset="1" stop-opacity="1" />
		</linearGradient>
	</defs>
	<rect id="代码" width="14.000000" height="14.000000" x="0.000000" y="0.000000" fill="rgb(0,0,0)" fill-opacity="0" />
	<g id="ic_public_code_1_1">
		<path id="ic_public_code_2_0" d="M0.439095 6.99466C0.439095 5.96942 0.435506 4.94419 0.439095 3.91896C0.437032 3.42285 0.498009 2.92849 0.620561 2.44775C0.889172 1.43021 1.55198 0.826344 2.5685 0.592078C3.0782 0.481954 3.59879 0.430359 4.12019 0.438294C6.08624 0.438294 8.05247 0.438294 10.0189 0.438294C10.5155 0.435211 11.0106 0.492008 11.4937 0.607457C12.5409 0.863765 13.1694 1.52709 13.4088 2.57078C13.5164 3.06404 13.5678 3.56791 13.5621 4.07274C13.5621 6.05999 13.5621 8.0474 13.5621 10.035C13.5647 10.5268 13.5081 11.0172 13.3934 11.4954C13.1371 12.5432 12.4707 13.1686 11.427 13.408C10.9173 13.5177 10.3967 13.5693 9.87533 13.5618C7.91748 13.5618 5.9598 13.5618 4.00229 13.5618C3.50188 13.5659 3.00279 13.5099 2.5157 13.3952C1.46381 13.1389 0.832271 12.4725 0.593392 11.4237C0.47139 10.8905 0.439095 10.3559 0.439095 9.81661C0.439095 8.87613 0.439095 7.93548 0.439095 6.99466Z" fill="rgb(255,255,255)" fill-opacity="0" fill-rule="nonzero" />
		<path id="ic_public_code_2_0" d="M0.439095 3.91896C0.437032 3.42285 0.498009 2.92849 0.620561 2.44775C0.889172 1.43021 1.55198 0.826344 2.5685 0.592078C3.0782 0.481954 3.59879 0.430359 4.12019 0.438294C6.08624 0.438294 8.05247 0.438294 10.0189 0.438294C10.5155 0.435211 11.0106 0.492008 11.4937 0.607457C12.5409 0.863765 13.1694 1.52709 13.4088 2.57078C13.5164 3.06404 13.5678 3.56791 13.5621 4.07274C13.5621 6.05999 13.5621 8.0474 13.5621 10.035C13.5647 10.5268 13.5081 11.0172 13.3934 11.4954C13.1371 12.5432 12.4707 13.1686 11.427 13.408C10.9173 13.5177 10.3967 13.5693 9.87533 13.5618C7.91748 13.5618 5.9598 13.5618 4.00229 13.5618C3.50188 13.5659 3.00279 13.5099 2.5157 13.3952C1.46381 13.1389 0.832271 12.4725 0.593392 11.4237C0.47139 10.8905 0.439095 10.3559 0.439095 9.81661C0.439095 8.87613 0.439095 7.93548 0.439095 6.99466C0.439095 5.96942 0.435506 4.94419 0.439095 3.91896Z" fill-rule="nonzero" stroke="rgb(255,255,255)" stroke-opacity="0" stroke-width="0.875" />
		<path id="ic_public_code_2_1" d="M0.439095 3.91896C0.437032 3.42285 0.498009 2.92849 0.620561 2.44775C0.889172 1.43021 1.55198 0.826344 2.5685 0.592078C3.0782 0.481954 3.59879 0.430359 4.12019 0.438294C6.08624 0.438294 8.05247 0.438294 10.0189 0.438294C10.5155 0.435211 11.0106 0.492008 11.4937 0.607457C12.5409 0.863765 13.1694 1.52709 13.4088 2.57078C13.5164 3.06404 13.5678 3.56791 13.5621 4.07274C13.5621 6.05999 13.5621 8.0474 13.5621 10.035C13.5647 10.5268 13.5081 11.0172 13.3934 11.4954C13.1371 12.5432 12.4707 13.1686 11.427 13.408C10.9173 13.5177 10.3967 13.5693 9.87533 13.5618C7.91748 13.5618 5.9598 13.5618 4.00229 13.5618C3.50188 13.5659 3.00279 13.5099 2.5157 13.3952C1.46381 13.1389 0.832271 12.4725 0.593392 11.4237C0.47139 10.8905 0.439095 10.3559 0.439095 9.81661C0.439095 8.87613 0.439095 7.93548 0.439095 6.99466C0.439095 5.96942 0.435506 4.94419 0.439095 3.91896Z" opacity="0.200000003" fill-rule="nonzero" stroke="rgb(255,255,255)" stroke-opacity="0" stroke-width="0.875" />
		<circle id="ic_public_code_2_2" cx="7" cy="7" r="7" fill="rgb(255,255,255)" fill-opacity="0" />
		<path id="ic_public_code_2_3" d="M3.61576 3.79167L1.02551 6.38135C0.683629 6.72289 0.683569 7.27691 1.02524 7.61866C1.02529 7.6187 1.02533 7.61875 1.02551 7.61866L2.32064 8.9135L3.61576 10.2083M10.3604 3.79167L12.9506 6.38135C13.2925 6.72289 13.2926 7.27691 12.9509 7.61866C12.9509 7.6187 12.9508 7.61875 12.9506 7.61866L10.3604 10.2083" fill-rule="evenodd" stroke="rgb(25,25,25)" stroke-linecap="round" stroke-linejoin="round" stroke-width="1.20000005" />
		<path id="ic_public_code_2_4" d="M9.71036 3.58545C9.82425 3.47153 10.0089 3.47151 10.1228 3.5854L12.713 6.17501C13.1689 6.63041 13.169 7.36916 12.7134 7.82487L10.1228 10.4146C10.0177 10.5197 9.85224 10.5278 9.73783 10.4388L9.71036 10.4146C9.59647 10.3006 9.59649 10.116 9.7104 10.0021L12.3007 7.41239L12.3033 7.40979L12.335 7.37533C12.5173 7.15886 12.5172 6.84107 12.3347 6.6247L12.3007 6.58761L9.7104 3.99793C9.59649 3.88404 9.59647 3.69937 9.71036 3.58545ZM3.87777 3.5854C3.99169 3.47151 4.17636 3.47153 4.29025 3.58545C4.40414 3.69937 4.40412 3.88404 4.29021 3.99793L1.69987 6.58769C1.47202 6.81532 1.47195 7.1846 1.69973 7.41243L1.69687 7.40979L1.69996 7.41239L4.29021 10.0021C4.40412 10.116 4.40414 10.3006 4.29025 10.4146C4.17636 10.5285 3.99169 10.5285 3.87777 10.4146L1.28795 7.82542C0.84679 7.38435 0.832237 6.67934 1.24346 6.22154L1.28752 6.17509L3.87777 3.5854Z" fill="rgb(255,255,255)" fill-opacity="0" fill-rule="nonzero" />
		<path id="ic_public_code_2_4" d="M10.1228 3.5854L12.713 6.17501C13.1689 6.63041 13.169 7.36916 12.7134 7.82487L10.1228 10.4146C10.0177 10.5197 9.85224 10.5278 9.73783 10.4388L9.71036 10.4146C9.59647 10.3006 9.59649 10.116 9.7104 10.0021L12.3007 7.41239L12.3033 7.40979L12.335 7.37533C12.5173 7.15886 12.5172 6.84107 12.3347 6.6247L12.3007 6.58761L9.7104 3.99793C9.59649 3.88404 9.59647 3.69937 9.71036 3.58545C9.82425 3.47153 10.0089 3.47151 10.1228 3.5854ZM4.29025 3.58545C4.40414 3.69937 4.40412 3.88404 4.29021 3.99793L1.69987 6.58769C1.47202 6.81532 1.47195 7.1846 1.69973 7.41243L1.69687 7.40979L1.69996 7.41239L4.29021 10.0021C4.40412 10.116 4.40414 10.3006 4.29025 10.4146C4.17636 10.5285 3.99169 10.5285 3.87777 10.4146L1.28795 7.82542C0.84679 7.38435 0.832237 6.67934 1.24346 6.22154L1.28752 6.17509L3.87777 3.5854C3.99169 3.47151 4.17636 3.47153 4.29025 3.58545Z" fill-rule="nonzero" stroke="rgb(255,255,255)" stroke-opacity="0" stroke-linejoin="round" stroke-width="0.875" />
		<line id="ic_public_code_2_5" x1="9.23684581e-07" x2="6.4957242" y1="0" y2="0" stroke="rgb(25,25,25)" stroke-linecap="round" stroke-linejoin="round" stroke-width="1.20000005" transform="matrix(0.359211,-0.933256,0.933256,0.359211,5.83337,10.0311)" />
		<path id="ic_public_code_2_6" d="M6.66301 0.00359209C6.82213 -0.0214635 6.97144 0.0872194 6.99649 0.246342C7.02155 0.405464 6.91287 0.55477 6.75374 0.579826L0.337076 1.59019C0.177953 1.61524 0.0286475 1.50656 0.00359209 1.34744C-0.0214633 1.18832 0.0872197 1.03901 0.246342 1.01395L6.66301 0.00359209Z" fill="rgb(255,255,255)" fill-opacity="0" fill-rule="nonzero" transform="matrix(0.5,-0.866025,0.866025,0.5,4.55981,9.63268)" />
		<path id="ic_public_code_2_6" d="M6.99649 0.246342C7.02155 0.405464 6.91287 0.55477 6.75374 0.579826L0.337076 1.59019C0.177953 1.61524 0.0286475 1.50656 0.00359209 1.34744C-0.0214633 1.18832 0.0872197 1.03901 0.246342 1.01395L6.66301 0.00359209C6.82213 -0.0214635 6.97144 0.0872194 6.99649 0.246342Z" fill-rule="nonzero" stroke="rgb(255,255,255)" stroke-opacity="0" stroke-width="0.875" transform="matrix(0.5,-0.866025,0.866025,0.5,4.55981,9.63268)" />
	</g>
</svg>
