<svg viewBox="0 0 14 14" xmlns="http://www.w3.org/2000/svg" xmlns:xlink="http://www.w3.org/1999/xlink" width="14.000000" height="14.000000" fill="none">
	<rect id="内容左对齐" width="14.000000" height="14.000000" x="0.000000" y="0.000000" />
	<path id="矢量 348" d="M0.83223 7.17152L3.67071 4.34582C3.86231 4.15508 3.86231 3.84492 3.67071 3.65418L0.83223 0.828481C0.524512 0.522149 0 0.740103 0 1.1743L0 6.8257C0 7.2599 0.524512 7.47785 0.83223 7.17152Z" fill="rgb(0,0,0)" fill-rule="nonzero" transform="matrix(-1,0,0,1,4.01807,3)" />
	<line id="直线 2" transform="matrix(-1,0,0,-1,11.6666,3.1131)" />
	<path id="矢量 349" d="M9.76672 0C8.9383 0 8.23119 0.292893 7.6454 0.87868C7.05962 1.46447 6.76672 2.17157 6.76672 3C6.76672 3.82843 7.05962 4.53553 7.6454 5.12132C8.23119 5.70711 8.9383 6 9.76672 6L10.7667 6L10.7667 1C10.7667 0.447715 10.319 0 9.76672 0Z" fill="rgb(0,0,0)" fill-rule="nonzero" />
	<rect id="矩形 28" width="1.500000" height="12.000000" x="12.506714" y="2.000000" rx="0.750000" fill="rgb(0,0,0)" />
	<rect id="矩形 29" width="1.500000" height="14.000000" x="9.286621" y="0.000000" rx="0.750000" fill="rgb(0,0,0)" />
</svg>
