<svg viewBox="0 0 14 14" xmlns="http://www.w3.org/2000/svg" xmlns:xlink="http://www.w3.org/1999/xlink" width="14.000000" height="14.000000" fill="none">
	<mask id="mask_4" width="14.000000" height="14.000006" x="0.000000" y="0.000290" maskUnits="userSpaceOnUse">
		<g filter="url(#pixso_custom_mask_type_alpha)">
			<g id="mask431_5303">
				<path id="减去顶层" d="M0 0.000289917L14 0.000289917L14 14.0003L0 14.0003L0 0.000289917ZM3.5 5.25C3.5 4.92786 3.76119 4.66667 4.08333 4.66667C4.40548 4.66667 4.66667 4.92786 4.66667 5.25C4.66667 5.57215 4.40548 5.83334 4.08333 5.83334C3.76119 5.83334 3.5 5.57215 3.5 5.25ZM9.33333 5.25C9.33333 4.92786 9.59452 4.66667 9.91667 4.66667C10.2388 4.66667 10.5 4.92786 10.5 5.25C10.5 5.57215 10.2388 5.83334 9.91667 5.83334C9.59452 5.83334 9.33333 5.57215 9.33333 5.25ZM3.20892 7.8753C3.20892 9.96937 4.9065 11.667 7.00058 11.667C9.09463 11.667 10.7922 9.96937 10.7922 7.8753L3.20892 7.8753Z" fill="rgb(255,255,255)" fill-opacity="0" fill-rule="evenodd" />
			</g>
		</g>
	</mask>
	<mask id="mask_3" width="14.000000" height="14.000000" x="0.000000" y="0.000000" maskUnits="userSpaceOnUse">
		<g filter="url(#pixso_custom_mask_type_alpha)">
			<g id="clip431_5292">
				<rect id="support" width="14.000000" height="14.000000" x="0.000000" y="0.000000" fill="rgb(0,0,0)" />
			</g>
		</g>
	</mask>
	<defs>
		<filter id="pixso_custom_mask_type_alpha">
			<feColorMatrix type="matrix" values="0 0 0 0 1 0 0 0 0 1 0 0 0 0 1 0 0 0 1 0 " />
		</filter>
	</defs>
	<mask id="mask_2" width="14.000000" height="14.000000" x="0.000000" y="0.000000" maskUnits="userSpaceOnUse">
		<g filter="url(#pixso_custom_mask_type_alpha)">
			<g id="clip431_5291">
				<rect id="ic_public_emoji_smile-笑脸/base/ic_public_emoji_smile" width="14.000000" height="14.000000" x="0.000000" y="0.000000" fill="rgb(0,0,0)" />
			</g>
		</g>
	</mask>
	<rect id="表情" width="14.000000" height="14.000000" x="0.000000" y="0.000000" />
	<rect id="ic_public_emoji_smile-笑脸/base/ic_public_emoji_smile" width="14.000000" height="14.000000" x="0.000000" y="0.000000" fill="rgb(255,255,255)" fill-opacity="0" />
	<g id="clip path group" mask="url(#mask_2)">
		<g id="组合 24">
			<g id="clip path group" mask="url(#mask_3)">
				<g id="组合 26">
					<path id="path1" d="M-4.64772e-05 6.99416C-4.64772e-05 5.90041 -0.00296314 4.80666 -4.64772e-05 3.71291C-0.00296314 3.18208 0.0641202 2.65416 0.192454 2.14375C0.478287 1.05875 1.18412 0.411246 2.27204 0.163329C2.81162 0.0466622 3.37162 -0.00875443 3.92579 -4.4356e-06C6.01995 -4.4356e-06 8.11704 -4.4356e-06 10.22 -4.4356e-06C10.7479 -0.0029211 11.2758 0.0524956 11.792 0.180829C12.9091 0.452079 13.58 1.15791 13.8337 2.275C13.9504 2.8 14.0029 3.33375 13.997 3.87625C13.997 5.99666 13.997 8.11708 13.997 10.2346C14 10.7596 13.9416 11.2817 13.8162 11.7921C13.542 12.9121 12.8333 13.5771 11.7191 13.8337C11.1737 13.9504 10.6195 14.0058 10.0654 13.9971C7.97704 13.9971 5.88579 13.9971 3.80037 13.9971C3.26662 14.0029 2.73287 13.9417 2.21662 13.8192C1.0937 13.5479 0.417037 12.8362 0.163287 11.7133C0.0349535 11.1475 -4.64772e-05 10.5787 -4.64772e-05 10.0042C-4.64772e-05 9.00083 -4.64772e-05 7.99458 -4.64772e-05 6.99416Z" fill="rgb(255,255,255)" fill-opacity="0" fill-rule="evenodd" />
					<circle id="path2" cx="7" cy="7" r="7" fill="rgb(255,255,255)" fill-opacity="0" />
				</g>
			</g>
			<ellipse id="path3" rx="6.000190" ry="6.000000" cx="7.00006771" cy="7.00006104" stroke="rgb(25,25,25)" stroke-width="1.20000005" />
			<path id="path4" d="M10 7.875L4 7.875C4 9.52962 5.34308 10.875 7 10.875C8.65462 10.875 10 9.52962 10 7.875Z" fill-rule="nonzero" stroke="rgb(25,25,25)" stroke-linejoin="round" stroke-width="1.20000005" />
			<path id="path5" d="M3.88452 5.25001C3.88452 5.57084 4.1441 5.83334 4.46785 5.83334C4.78869 5.83334 5.05119 5.57084 5.05119 5.25001C5.05119 4.92625 4.78869 4.66667 4.46785 4.66667C4.1441 4.66667 3.88452 4.92625 3.88452 5.25001ZM8.94873 5.25001C8.94873 5.57084 9.20831 5.83334 9.53206 5.83334C9.8529 5.83334 10.1154 5.57084 10.1154 5.25001C10.1154 4.92626 9.8529 4.66668 9.53206 4.66668C9.20831 4.66668 8.94873 4.92626 8.94873 5.25001Z" fill="rgb(25,25,25)" fill-rule="nonzero" />
			<path id="path5" d="M4.46785 5.83334C4.78869 5.83334 5.05119 5.57084 5.05119 5.25001C5.05119 4.92625 4.78869 4.66667 4.46785 4.66667C4.1441 4.66667 3.88452 4.92625 3.88452 5.25001C3.88452 5.57084 4.1441 5.83334 4.46785 5.83334ZM9.53206 5.83334C9.8529 5.83334 10.1154 5.57084 10.1154 5.25001C10.1154 4.92626 9.8529 4.66668 9.53206 4.66668C9.20831 4.66668 8.94873 4.92626 8.94873 5.25001C8.94873 5.57084 9.20831 5.83334 9.53206 5.83334Z" fill-rule="nonzero" stroke="rgb(25,25,25)" stroke-linejoin="round" stroke-width="1.20000005" />
			<g id="mask" mask="url(#mask_4)">
				<g id="组合 28">
					<ellipse id="path4" rx="7.000000" ry="6.999780" cx="7" cy="7.00014591" fill="rgb(255,255,255)" fill-opacity="0" />
				</g>
			</g>
			<path id="path4" d="M3.20837 7.875C3.20837 9.96625 4.90587 11.6667 7.00004 11.6667C9.09129 11.6667 10.7917 9.96625 10.7917 7.875L3.20837 7.875Z" fill="rgb(255,255,255)" fill-opacity="0" fill-rule="evenodd" />
			<path id="path4" d="M10.7917 7.875L3.20837 7.875C3.20837 9.96625 4.90587 11.6667 7.00004 11.6667C9.09129 11.6667 10.7917 9.96625 10.7917 7.875Z" fill-rule="nonzero" stroke="rgb(255,255,255)" stroke-opacity="0" stroke-linejoin="round" stroke-width="0.875" />
			<path id="path5" d="M4.08333 4.66667C3.75958 4.66667 3.5 4.92625 3.5 5.25001C3.5 5.57084 3.75958 5.83334 4.08333 5.83334C4.40417 5.83334 4.66667 5.57084 4.66667 5.25001C4.66667 4.92625 4.40417 4.66667 4.08333 4.66667ZM9.91667 4.66667C9.59292 4.66667 9.33333 4.92625 9.33333 5.25001C9.33333 5.57084 9.59292 5.83334 9.91667 5.83334C10.2375 5.83334 10.5 5.57084 10.5 5.25001C10.5 4.92625 10.2375 4.66667 9.91667 4.66667Z" fill="rgb(255,255,255)" fill-opacity="0" fill-rule="evenodd" />
			<path id="path5" d="M4.08333 5.83334C4.40417 5.83334 4.66667 5.57084 4.66667 5.25001C4.66667 4.92625 4.40417 4.66667 4.08333 4.66667C3.75958 4.66667 3.5 4.92625 3.5 5.25001C3.5 5.57084 3.75958 5.83334 4.08333 5.83334ZM9.91667 5.83334C10.2375 5.83334 10.5 5.57084 10.5 5.25001C10.5 4.92625 10.2375 4.66667 9.91667 4.66667C9.59292 4.66667 9.33333 4.92625 9.33333 5.25001C9.33333 5.57084 9.59292 5.83334 9.91667 5.83334Z" fill-rule="nonzero" stroke="rgb(255,255,255)" stroke-opacity="0" stroke-linejoin="round" stroke-width="0.875" />
		</g>
	</g>
</svg>
