<svg viewBox="0 0 14 14" xmlns="http://www.w3.org/2000/svg" xmlns:xlink="http://www.w3.org/1999/xlink" width="14.000000" height="14.000000" fill="none">
	<rect id="上传" width="14.000000" height="14.000000" x="0.000000" y="0.000000" />
	<rect id="ic_public_download-下载/base/ic_public_download" width="14.000000" height="14.000000" x="0.000000" y="0.000000" fill="rgb(255,255,255)" fill-opacity="0" />
	<path id="path1" d="M-4.64772e-05 6.99416C-4.64772e-05 5.90041 -0.00296314 4.80666 -4.64772e-05 3.71291C-0.00296314 3.18208 0.0641202 2.65416 0.192454 2.14375C0.481203 1.05875 1.18704 0.414162 2.27204 0.163329C2.81454 0.0466622 3.37162 -0.00875443 3.92579 -4.4356e-06C6.02287 -4.4356e-06 8.11995 -4.4356e-06 10.22 -4.4356e-06C10.7479 -0.0029211 11.2758 0.0554122 11.792 0.180829C12.9091 0.452079 13.58 1.16083 13.8337 2.275C13.9504 2.8 14.0029 3.33666 13.997 3.87625C13.997 5.99666 13.997 8.11708 13.997 10.2346C14 10.7596 13.9416 11.2846 13.8191 11.795C13.545 12.9121 12.8333 13.5771 11.7191 13.8337C11.1766 13.9504 10.6225 14.0058 10.0654 13.9971C7.97704 13.9971 5.8887 13.9971 3.80037 13.9971C3.26662 14.0029 2.73579 13.9417 2.2137 13.8192C1.0937 13.5479 0.419954 12.8362 0.166204 11.7162C0.0349535 11.1475 -4.64772e-05 10.5787 -4.64772e-05 10.0042C-4.64772e-05 9.00083 -4.64772e-05 7.9975 -4.64772e-05 6.99416Z" fill="rgb(255,255,255)" fill-opacity="0" fill-rule="evenodd" />
	<circle id="path2" cx="7" cy="7" r="7" fill="rgb(255,255,255)" fill-opacity="0" />
	<path id="path3" d="M0.875 9.625L0.875 11.375C0.875 12.3404 1.65667 13.125 2.625 13.125L11.375 13.125C12.3404 13.125 13.125 12.3404 13.125 11.375L13.125 9.625" fill-rule="nonzero" stroke="rgb(25,25,25)" stroke-linecap="round" stroke-linejoin="round" stroke-width="1.20000005" />
	<path id="path4" d="M0 5.41333L3.91708 9.33333L7.83708 5.41333M3.91708 9.33333L3.92 0" fill-rule="nonzero" stroke="rgb(25,25,25)" stroke-linecap="round" stroke-linejoin="round" stroke-width="1.20000005" transform="matrix(1,0,0,-1,3.08008,10.2083)" />
	<path id="path5" d="M1.45833 9.91667L1.45833 11.375C1.45833 11.4625 1.46708 11.55 1.4875 11.6375C1.50208 11.7017 1.5225 11.7658 1.54875 11.8271C1.575 11.8913 1.60708 11.9525 1.645 12.0108C1.68875 12.0779 1.74125 12.1392 1.79958 12.1975C1.85792 12.2558 1.91917 12.3083 1.98625 12.3521C2.04458 12.39 2.10583 12.4221 2.17 12.4483C2.23125 12.4746 2.29542 12.495 2.35958 12.5096C2.44708 12.53 2.53458 12.5417 2.625 12.5417L11.375 12.5417C11.4625 12.5417 11.55 12.53 11.6375 12.5096C11.7017 12.495 11.7658 12.4746 11.8271 12.4483C11.8912 12.4221 11.9525 12.39 12.0108 12.3521C12.0779 12.3083 12.1392 12.2558 12.1975 12.1975C12.2558 12.1392 12.3083 12.0779 12.3521 12.0108C12.39 11.9525 12.4221 11.8913 12.4483 11.8271C12.4746 11.7658 12.495 11.7017 12.5096 11.6375C12.53 11.55 12.5417 11.4625 12.5417 11.375L12.5417 9.91667C12.5417 9.75042 12.6671 9.625 12.8333 9.625C12.9967 9.625 13.125 9.75042 13.125 9.91667L13.125 11.375C13.125 11.5033 13.1104 11.6287 13.0812 11.7513C13.0608 11.8563 13.0287 11.9554 12.985 12.0546C12.9442 12.1537 12.8946 12.2471 12.8362 12.3375C12.7692 12.4338 12.6962 12.5271 12.6117 12.6117C12.5271 12.6962 12.4338 12.7721 12.3375 12.8362C12.2471 12.8946 12.1537 12.9442 12.0546 12.985C11.9554 13.0287 11.8563 13.0608 11.7513 13.0842C11.6287 13.1104 11.5033 13.125 11.375 13.125L2.625 13.125C2.49375 13.125 2.36833 13.1104 2.24583 13.0842C2.14083 13.0608 2.04167 13.0287 1.9425 12.985C1.84333 12.9442 1.75 12.8946 1.65958 12.8362C1.56333 12.7692 1.47 12.6962 1.38542 12.6117C1.30083 12.5271 1.22792 12.4338 1.16083 12.3375C1.1025 12.2471 1.05292 12.1537 1.01208 12.0546C0.968333 11.9554 0.93625 11.8563 0.915833 11.7513C0.886667 11.6287 0.875 11.5033 0.875 11.375L0.875 9.91667C0.875 9.75042 1.00042 9.625 1.16667 9.625C1.33 9.625 1.45833 9.75042 1.45833 9.91667Z" fill="rgb(255,255,255)" fill-opacity="0" fill-rule="evenodd" />
	<path id="path5" d="M1.4875 11.6375C1.50208 11.7017 1.5225 11.7658 1.54875 11.8271C1.575 11.8913 1.60708 11.9525 1.645 12.0108C1.68875 12.0779 1.74125 12.1392 1.79958 12.1975C1.85792 12.2558 1.91917 12.3083 1.98625 12.3521C2.04458 12.39 2.10583 12.4221 2.17 12.4483C2.23125 12.4746 2.29542 12.495 2.35958 12.5096C2.44708 12.53 2.53458 12.5417 2.625 12.5417L11.375 12.5417C11.4625 12.5417 11.55 12.53 11.6375 12.5096C11.7017 12.495 11.7658 12.4746 11.8271 12.4483C11.8912 12.4221 11.9525 12.39 12.0108 12.3521C12.0779 12.3083 12.1392 12.2558 12.1975 12.1975C12.2558 12.1392 12.3083 12.0779 12.3521 12.0108C12.39 11.9525 12.4221 11.8913 12.4483 11.8271C12.4746 11.7658 12.495 11.7017 12.5096 11.6375C12.53 11.55 12.5417 11.4625 12.5417 11.375L12.5417 9.91667C12.5417 9.75042 12.6671 9.625 12.8333 9.625C12.9967 9.625 13.125 9.75042 13.125 9.91667L13.125 11.375C13.125 11.5033 13.1104 11.6287 13.0812 11.7513C13.0608 11.8563 13.0287 11.9554 12.985 12.0546C12.9442 12.1537 12.8946 12.2471 12.8362 12.3375C12.7692 12.4338 12.6962 12.5271 12.6117 12.6117C12.5271 12.6962 12.4338 12.7721 12.3375 12.8362C12.2471 12.8946 12.1537 12.9442 12.0546 12.985C11.9554 13.0287 11.8563 13.0608 11.7513 13.0842C11.6287 13.1104 11.5033 13.125 11.375 13.125L2.625 13.125C2.49375 13.125 2.36833 13.1104 2.24583 13.0842C2.14083 13.0608 2.04167 13.0287 1.9425 12.985C1.84333 12.9442 1.75 12.8946 1.65958 12.8362C1.56333 12.7692 1.47 12.6962 1.38542 12.6117C1.30083 12.5271 1.22792 12.4338 1.16083 12.3375C1.1025 12.2471 1.05292 12.1537 1.01208 12.0546C0.968333 11.9554 0.93625 11.8563 0.915833 11.7513C0.886667 11.6287 0.875 11.5033 0.875 11.375L0.875 9.91667C0.875 9.75042 1.00042 9.625 1.16667 9.625C1.33 9.625 1.45833 9.75042 1.45833 9.91667L1.45833 11.375C1.45833 11.4625 1.46708 11.55 1.4875 11.6375Z" fill-rule="nonzero" stroke="rgb(255,255,255)" stroke-opacity="0" stroke-width="0.875" />
	<path id="path6" d="M7.29161 1.16667L7.28869 9.21083L10.4183 6.08125C10.5349 5.9675 10.7158 5.9675 10.8324 6.08125C10.9462 6.19792 10.9462 6.37875 10.8324 6.49542L7.20411 10.1208C7.14578 10.1792 7.07869 10.2083 6.99703 10.2083C6.91828 10.2083 6.84828 10.1792 6.79286 10.1208L3.16453 6.49542C3.04786 6.37875 3.04786 6.19792 3.16453 6.08125C3.28119 5.9675 3.46203 5.9675 3.57578 6.08125L6.70536 9.21083L6.70828 1.16375C6.70828 1.00042 6.83369 0.875 6.99994 0.875C7.16328 0.875 7.29161 1.00333 7.29161 1.16667Z" fill="rgb(255,255,255)" fill-opacity="0" fill-rule="evenodd" />
	<path id="path6" d="M10.4183 6.08125C10.5349 5.9675 10.7158 5.9675 10.8324 6.08125C10.9462 6.19792 10.9462 6.37875 10.8324 6.49542L7.20411 10.1208C7.14578 10.1792 7.07869 10.2083 6.99703 10.2083C6.91828 10.2083 6.84828 10.1792 6.79286 10.1208L3.16453 6.49542C3.04786 6.37875 3.04786 6.19792 3.16453 6.08125C3.28119 5.9675 3.46203 5.9675 3.57578 6.08125L6.70536 9.21083L6.70828 1.16375C6.70828 1.00042 6.83369 0.875 6.99994 0.875C7.16328 0.875 7.29161 1.00333 7.29161 1.16667L7.28869 9.21083L10.4183 6.08125Z" fill-rule="nonzero" stroke="rgb(255,255,255)" stroke-opacity="0" stroke-width="0.875" />
</svg>
