<svg viewBox="0 0 14 14" xmlns="http://www.w3.org/2000/svg" xmlns:xlink="http://www.w3.org/1999/xlink" width="14.000000" height="14.000000" fill="none">
	<rect id="算法" width="14.000000" height="14.000000" x="0.000000" y="0.000000" />
	<path id="矢量 355" d="M9.75523 0.483664C9.18264 0.0884631 8.55353 -0.0501863 7.86787 0.0677162C7.1822 0.185619 6.63553 0.526451 6.22785 1.09021C5.51417 2.01725 5.0382 3.05348 4.79992 4.19889C4.10943 7.18467 3.27605 12.6696 2.15189 12.9194C1.907 12.3465 1.47399 12.0357 0.852858 11.9871C0.587561 12.0055 0.370863 12.1178 0.202764 12.3238C0.0346646 12.5299 -0.0317596 12.7647 0.00349107 13.0283C0.00349107 13.0283 -0.0424747 13.9916 2.12091 13.9916C4.2843 13.9916 5.20961 11.3026 5.81816 8.44273C5.99503 7.61735 6.17789 6.71802 6.37175 5.84467L6.77345 4.19889C7.15416 2.77895 7.57985 1.67977 8.07847 1.52489C8.28755 1.94943 8.62729 2.13596 9.09772 2.08447C9.49645 2.05673 9.77175 1.85799 9.92362 1.48826C10.0755 1.11853 10.0193 0.783667 9.75523 0.483664Z" fill="rgb(0,0,0)" fill-rule="nonzero" />
	<rect id="矩形 32" width="4.996276" height="1.598808" x="3.151245" y="4.198914" rx="0.799404" fill="rgb(0,0,0)" />
	<path id="矢量 356" d="M11.6579 10.0216C11.7358 9.91935 11.8244 9.82742 11.9237 9.74577C12.0522 9.79174 12.2041 9.8377 12.3793 9.88367C12.5545 9.92973 12.7327 9.95271 12.9139 9.95262C13.2108 9.95863 13.4663 9.85871 13.6803 9.65284C13.9053 9.43361 14.0099 9.16714 13.9941 8.85343C14.0034 8.61319 13.9241 8.40701 13.7563 8.23489C13.5932 8.06889 13.3953 7.98929 13.1627 7.99607C12.8637 7.99482 12.6036 8.09474 12.3823 8.29585C12.0759 8.59277 11.8157 8.92585 11.6019 9.2951C11.5413 9.39503 11.4687 9.51028 11.3841 9.64085L11.1382 10.0206C11.0703 9.73278 11.0013 9.439 10.9264 9.13622C10.4677 7.2906 8.43426 8.15296 7.98759 8.33682C7.50595 8.53667 7.63485 8.98334 7.89366 8.86542C8.15087 8.71944 8.41398 8.70788 8.683 8.83073C8.95202 8.95359 9.11559 9.16001 9.17371 9.44999C9.39054 10.2004 9.55042 10.8849 9.70031 11.4865C9.58783 11.6483 9.46725 11.8038 9.33858 11.9531C9.25701 12.0496 9.16908 12.1399 9.07478 12.2239C8.92756 12.1706 8.77067 12.1217 8.60413 12.077C8.43313 12.0323 8.25926 12.0103 8.08252 12.0111C7.7854 12.0052 7.52959 12.1052 7.31509 12.3109C7.08692 12.5339 6.98133 12.8047 6.99833 13.1233C6.97575 13.6997 7.25287 13.9835 7.82971 13.9746C8.13181 13.9795 8.39395 13.8796 8.61612 13.6748C8.9157 13.3762 9.17417 13.0455 9.39154 12.6826C9.48547 12.5367 9.55709 12.4234 9.60638 12.3428C9.65235 12.2669 9.72829 12.149 9.82922 11.9971C9.91959 12.6866 10.2254 13.2615 10.7465 13.7218C11.57 14.0719 12.3614 14.0103 13.1208 13.5369C13.4375 13.3561 13.3326 12.9724 13.1208 13.0433C12.7916 13.2578 12.4748 13.2408 12.1705 12.9923C11.6533 12.2572 11.3492 11.4424 11.2582 10.5482C11.4074 10.339 11.5406 10.1635 11.6579 10.0216Z" fill="rgb(0,0,0)" fill-rule="nonzero" />
</svg>
