<svg viewBox="0 0 14 14" xmlns="http://www.w3.org/2000/svg" xmlns:xlink="http://www.w3.org/1999/xlink" width="14.000000" height="14.000000" fill="none">
	<rect id="格式刷" width="14.000000" height="14.000000" x="0.000000" y="0.000000" />
	<g id="组合 12">
		<g id="ic_public_paintbrush-刷子/base/ic_public_paintbrush">
			<path id="path4" d="M11.7594 4.29446L11.8907 2.76004C11.9671 1.86764 11.3056 1.08228 10.4132 1.00591C10.3672 1.00197 10.321 1 10.2749 1L1.5 1C2.26751 1.74844 2.76501 2.44321 2.99247 3.08432C3.21994 3.72543 3.35313 4.67011 3.39204 5.91837" fill-rule="evenodd" stroke="rgb(25,25,25)" stroke-linecap="round" stroke-linejoin="round" stroke-width="1.20000005" />
			<path id="path5" d="M12.582 6.18866L12.582 7.13468C12.582 7.80643 12.0374 8.35099 11.3657 8.35099L8.89601 8.35099C8.59746 8.35099 8.35543 8.59301 8.35543 8.89157C8.35543 8.9215 8.35792 8.95138 8.36286 8.9809L8.7724 11.4252C8.89573 12.1614 8.39897 12.8581 7.66284 12.9814C7.58904 12.9938 7.51434 13 7.43952 13L7.41124 13C6.66485 13 6.05979 12.3949 6.05979 11.6485C6.05979 11.5677 6.06704 11.487 6.08146 11.4075L6.52009 8.988C6.57335 8.69423 6.37838 8.41292 6.08461 8.35966C6.05279 8.35389 6.02052 8.35099 5.98818 8.35099L3.52722 8.35099C2.85547 8.35099 2.31091 7.80643 2.31091 7.13468L2.31091 6.18866C2.31091 6.03938 2.43193 5.91837 2.5812 5.91837L12.3117 5.91837C12.461 5.91837 12.582 6.03938 12.582 6.18866Z" fill="rgb(255,255,255)" fill-opacity="0" fill-rule="evenodd" />
			<path id="path5" d="M12.582 7.13468C12.582 7.80643 12.0374 8.35099 11.3657 8.35099L8.89601 8.35099C8.59746 8.35099 8.35543 8.59301 8.35543 8.89157C8.35543 8.9215 8.35792 8.95138 8.36286 8.9809L8.7724 11.4252C8.89573 12.1614 8.39897 12.8581 7.66284 12.9814C7.58904 12.9938 7.51434 13 7.43952 13L7.41124 13C6.66485 13 6.05979 12.3949 6.05979 11.6485C6.05979 11.5677 6.06704 11.487 6.08146 11.4075L6.52009 8.988C6.57335 8.69423 6.37838 8.41292 6.08461 8.35966C6.05279 8.35389 6.02052 8.35099 5.98818 8.35099L3.52722 8.35099C2.85547 8.35099 2.31091 7.80643 2.31091 7.13468L2.31091 6.18866C2.31091 6.03938 2.43193 5.91837 2.5812 5.91837L12.3117 5.91837C12.461 5.91837 12.582 6.03938 12.582 6.18866L12.582 7.13468Z" fill-rule="evenodd" stroke="rgb(25,25,25)" stroke-linejoin="round" stroke-width="1.20000005" />
		</g>
	</g>
</svg>
