<svg viewBox="0 0 14 14" xmlns="http://www.w3.org/2000/svg" xmlns:xlink="http://www.w3.org/1999/xlink" width="14.000000" height="14.000000" fill="none">
	<mask id="mask_1" width="14.000000" height="14.000000" x="0.000000" y="0.000000" maskUnits="userSpaceOnUse">
		<g filter="url(#pixso_custom_mask_type_alpha)">
			<g id="clip764_42987">
				<rect id="矩形 34" width="14.000000" height="14.000000" x="0.000000" y="0.000000" fill="rgb(0,0,0)" />
			</g>
		</g>
	</mask>
	<defs>
		<filter id="pixso_custom_mask_type_alpha">
			<feColorMatrix type="matrix" values="0 0 0 0 1 0 0 0 0 1 0 0 0 0 1 0 0 0 1 0 " />
		</filter>
	</defs>
	<mask id="mask_0" width="14.000000" height="14.000000" x="0.000000" y="0.000000" maskUnits="userSpaceOnUse">
		<g filter="url(#pixso_custom_mask_type_alpha)">
			<g id="clip764_42986">
				<rect id="矩形 35" width="14.000000" height="14.000000" x="0.000000" y="0.000000" fill="rgb(0,0,0)" />
			</g>
		</g>
	</mask>
	<rect id="全屏" width="14.000000" height="14.000000" x="0.000000" y="0.000000" />
	<rect id="矩形 33" width="14.000000" height="14.000000" x="0.000000" y="0.000000" fill="rgb(255,255,255)" fill-opacity="0" />
	<g id="clip path group" mask="url(#mask_0)">
		<g id="组合 64">
			<g id="clip path group" mask="url(#mask_1)">
				<g id="组合 66">
					<path id="矢量 357" d="M2.91159e-05 6.99416C2.91159e-05 5.90041 -0.00580422 4.80666 2.91159e-05 3.71291C-0.00580422 3.18208 0.0612791 2.65416 0.192529 2.14375C0.481279 1.05875 1.18711 0.411246 2.27211 0.163329C2.81461 0.0466622 3.3717 -0.00875443 3.92586 -4.4356e-06C6.02295 -4.4356e-06 8.12003 -4.4356e-06 10.22 -4.4356e-06C10.7479 -0.0029211 11.2759 0.0524956 11.7921 0.180829C12.9092 0.452079 13.58 1.15791 13.8338 2.275C13.9504 2.8 14.0029 3.33375 13.9971 3.87625C13.9971 5.99666 13.9971 8.11708 13.9971 10.2346C14 10.7596 13.9417 11.2817 13.8192 11.7921C13.5421 12.9121 12.8334 13.5771 11.7192 13.8337C11.1767 13.9504 10.6225 14.0058 10.0625 13.9971C7.97711 13.9971 5.88586 13.9971 3.80045 13.9971C3.2667 14.0029 2.73586 13.9417 2.2167 13.8192C1.09378 13.5479 0.417112 12.8362 0.166279 11.7133C0.0350291 11.1475 2.91159e-05 10.5787 2.91159e-05 10.0042C2.91159e-05 9.00083 2.91159e-05 7.99458 2.91159e-05 6.99416Z" fill="rgb(255,255,255)" fill-opacity="0" fill-rule="evenodd" />
					<circle id="椭圆 4" cx="7" cy="7" r="7" fill="rgb(255,255,255)" fill-opacity="0" />
				</g>
			</g>
			<path id="矢量 358" d="M1.02087 4.89708L1.02087 1.02083L4.89712 1.02083M4.89708 4.89708L1.02087 1.02083" fill-rule="nonzero" stroke="rgb(25,25,25)" stroke-linecap="round" stroke-linejoin="round" stroke-width="1.20000005" />
			<path id="矢量 359" d="M1.02087 9.10001L1.02087 12.9763L4.89712 12.9763M4.89709 9.10002L1.02087 12.9763" fill-rule="nonzero" stroke="rgb(25,25,25)" stroke-linecap="round" stroke-linejoin="round" stroke-width="1.20000005" />
			<path id="矢量 360" d="M12.9762 4.89708L12.9762 1.02083L9.09705 1.02083M9.10001 4.89708L12.9762 1.02083" fill-rule="nonzero" stroke="rgb(25,25,25)" stroke-linecap="round" stroke-linejoin="round" stroke-width="1.20000005" />
			<path id="矢量 361" d="M12.9762 9.10001L12.9762 12.9763L9.09705 12.9763M9.09998 9.10001L12.9762 12.9763" fill-rule="nonzero" stroke="rgb(25,25,25)" stroke-linecap="round" stroke-linejoin="round" stroke-width="1.20000005" />
			<path id="矢量 362" d="M0.583374 1.31249L0.583374 4.70458C0.583374 5.11291 0.904207 5.43374 1.31254 5.43374C1.71796 5.43374 2.04171 5.11291 2.04171 4.70458L2.04171 3.07124L4.87962 5.90916C5.16837 6.19791 5.62046 6.19791 5.90921 5.90916C6.19796 5.62041 6.19796 5.16833 5.90921 4.87958L3.07129 2.04166L4.70462 2.04166C5.11296 2.04166 5.43379 1.72083 5.43379 1.31249C5.43379 0.904162 5.11296 0.583328 4.70462 0.583328L1.31254 0.583328C1.10837 0.583328 0.939207 0.653328 0.796291 0.796245C0.653374 0.939162 0.583374 1.10833 0.583374 1.31249Z" fill="rgb(255,255,255)" fill-opacity="0" fill-rule="evenodd" />
			<path id="矢量 363" d="M0.583374 12.6875L0.583374 9.2925C0.583374 8.88417 0.904207 8.56333 1.31254 8.56333C1.71796 8.56333 2.04171 8.88417 2.04171 9.2925L2.04171 10.9258L4.87962 8.08792C5.16837 7.79917 5.62046 7.79917 5.90921 8.08792C6.19796 8.37667 6.19796 8.82875 5.90921 9.1175L3.07129 11.9583L4.70462 11.9554C5.11296 11.9554 5.43379 12.2762 5.43379 12.6846C5.43379 13.0929 5.11296 13.4137 4.70462 13.4137L1.31254 13.4167C1.10837 13.4167 0.939207 13.3437 0.796291 13.2008C0.653374 13.0579 0.583374 12.8887 0.583374 12.6875Z" fill="rgb(255,255,255)" fill-opacity="0" fill-rule="evenodd" />
			<path id="矢量 364" d="M13.4167 1.31249L13.4167 4.70458C13.4167 5.11291 13.0929 5.43374 12.6875 5.43374C12.2792 5.43374 11.9583 5.11291 11.9583 4.70458L11.9583 3.07124L9.11748 5.90916C8.82873 6.19791 8.37665 6.19791 8.0879 5.90916C7.79915 5.62041 7.79915 5.16833 8.0879 4.87958L10.9258 2.04166L9.29248 2.04166C8.88415 2.04166 8.56332 1.72083 8.56332 1.31249C8.56332 0.904162 8.88415 0.583328 9.29248 0.583328L12.6875 0.583328C12.8887 0.583328 13.0579 0.653328 13.2008 0.796245C13.3437 0.939162 13.4167 1.10833 13.4167 1.31249Z" fill="rgb(255,255,255)" fill-opacity="0" fill-rule="evenodd" />
			<path id="矢量 365" d="M13.4167 12.6875L13.4167 9.2925C13.4167 8.88417 13.0929 8.56333 12.6875 8.56333C12.2792 8.56333 11.9583 8.88417 11.9583 9.2925L11.9583 10.9258L9.11748 8.08792C8.82873 7.79917 8.37665 7.79917 8.0879 8.08792C7.79915 8.37667 7.79915 8.82875 8.0879 9.1175L10.9258 11.9583L9.29248 11.9554C8.88415 11.9554 8.56332 12.2762 8.56332 12.6846C8.56332 13.0929 8.88415 13.4137 9.29248 13.4137L12.6875 13.4167C12.8887 13.4167 13.0579 13.3437 13.2008 13.2008C13.3437 13.0579 13.4167 12.8887 13.4167 12.6875Z" fill="rgb(255,255,255)" fill-opacity="0" fill-rule="evenodd" />
			<path id="矢量 366" d="M0.583374 1.31249L0.583374 4.70458C0.583374 5.11291 0.904207 5.43374 1.31254 5.43374C1.71796 5.43374 2.04171 5.11291 2.04171 4.70458L2.04171 3.07124L4.87962 5.90916C5.16837 6.19791 5.62046 6.19791 5.90921 5.90916C6.19796 5.62041 6.19796 5.16833 5.90921 4.87958L3.07129 2.04166L4.70462 2.04166C5.11296 2.04166 5.43379 1.72083 5.43379 1.31249C5.43379 0.904162 5.11296 0.583328 4.70462 0.583328L1.31254 0.583328C1.10837 0.583328 0.939207 0.653328 0.796291 0.796245C0.653374 0.939162 0.583374 1.10833 0.583374 1.31249Z" fill="rgb(255,255,255)" fill-opacity="0" fill-rule="evenodd" />
			<path id="矢量 367" d="M13.4167 12.6875L13.4167 9.2925C13.4167 8.88417 13.0929 8.56333 12.6875 8.56333C12.2792 8.56333 11.9583 8.88417 11.9583 9.2925L11.9583 10.9258L9.11748 8.08792C8.82873 7.79917 8.37665 7.79917 8.0879 8.08792C7.79915 8.37667 7.79915 8.82875 8.0879 9.1175L10.9258 11.9583L9.29248 11.9554C8.88415 11.9554 8.56332 12.2762 8.56332 12.6846C8.56332 13.0929 8.88415 13.4137 9.29248 13.4137L12.6875 13.4167C12.8887 13.4167 13.0579 13.3437 13.2008 13.2008C13.3437 13.0579 13.4167 12.8887 13.4167 12.6875Z" fill="rgb(255,255,255)" fill-opacity="0" fill-rule="evenodd" />
		</g>
	</g>
</svg>
