<svg viewBox="0 0 14 14" xmlns="http://www.w3.org/2000/svg" xmlns:xlink="http://www.w3.org/1999/xlink" width="14.000000" height="14.000000" fill="none">
	<rect id="链接" width="14.000000" height="14.000000" x="0.000000" y="0.000000" />
	<path id="path1" d="M-4.64772e-05 6.99416C-4.64772e-05 5.90041 -0.00296314 4.80666 -4.64772e-05 3.71291C-0.00296314 3.18208 0.0641202 2.65416 0.192454 2.14375C0.481203 1.05875 1.18704 0.414162 2.27204 0.163329C2.81454 0.0466622 3.37162 -0.00875443 3.92579 -4.4356e-06C6.02287 -4.4356e-06 8.11995 -4.4356e-06 10.22 -4.4356e-06C10.7479 -0.0029211 11.2758 0.0554122 11.792 0.180829C12.9091 0.452079 13.58 1.16083 13.8337 2.275C13.9504 2.8 14.0029 3.33666 13.997 3.87625C13.997 5.99666 13.997 8.11708 13.997 10.2346C14 10.7596 13.9416 11.2846 13.8191 11.7921C13.545 12.9121 12.8333 13.5771 11.722 13.8337C11.1766 13.9504 10.6225 14.0058 10.0654 13.9971C7.97704 13.9971 5.8887 13.9971 3.80037 13.9971C3.26662 14.0029 2.73579 13.9417 2.21662 13.8192C1.0937 13.5479 0.419954 12.8362 0.166204 11.7162C0.0349535 11.1475 -4.64772e-05 10.5787 -4.64772e-05 10.0042C-4.64772e-05 9.00083 -4.64772e-05 7.9975 -4.64772e-05 6.99416Z" fill="rgb(255,255,255)" fill-opacity="0" fill-rule="evenodd" />
	<circle id="path2" cx="7" cy="7" r="7" fill="rgb(255,255,255)" fill-opacity="0" />
	<path id="path3" d="M10.5233 8.30667L11.83 7C13.1658 5.66417 13.1658 3.5 11.83 2.16708C10.497 0.831249 8.33287 0.831249 6.99995 2.16708L5.69037 3.47375M8.30662 10.5233L6.99995 11.83C5.66412 13.1658 3.49995 13.1658 2.16704 11.83C0.831203 10.4971 0.831203 8.33292 2.16704 7L3.4737 5.69042" fill-rule="nonzero" stroke="rgb(25,25,25)" stroke-linecap="round" stroke-width="1.20000005" />
	<path id="pah4" d="M5.6875 8.3125L8.3125 5.6875" stroke="rgb(25,25,25)" stroke-linecap="round" stroke-linejoin="round" stroke-width="1.20000005" />
	<path id="path5" d="M11.0745 6.48375L9.83204 7.72625C9.65996 7.89834 9.57246 8.07042 9.57246 8.24251C9.57246 8.41459 9.65996 8.58667 9.83204 8.75875C9.90496 8.83167 9.98663 8.88709 10.0741 8.92209C10.1587 8.95417 10.2491 8.97167 10.3454 8.97167C10.4445 8.97167 10.535 8.95417 10.6166 8.92209C10.707 8.88709 10.7887 8.83167 10.8616 8.75875L12.1041 7.51334C12.4716 7.14875 12.7516 6.74334 12.947 6.3C12.9558 6.27667 12.9675 6.25334 12.9762 6.22709C12.9879 6.20376 12.9966 6.18042 13.0054 6.15417C13.1833 5.705 13.2708 5.22084 13.2708 4.70459C13.2708 4.18542 13.1833 3.70125 13.0054 3.25209C12.9966 3.22584 12.9879 3.2025 12.9762 3.17917C12.9675 3.15292 12.9558 3.12959 12.947 3.10625C12.7516 2.66292 12.4716 2.26042 12.1041 1.89292C11.7395 1.52542 11.3341 1.24542 10.8908 1.05001C10.8675 1.04125 10.8441 1.02959 10.8179 1.02084C10.7945 1.00917 10.7712 1.00042 10.7479 0.991672C10.2958 0.816672 9.81163 0.729172 9.29538 0.729172C8.77621 0.729172 8.29204 0.816672 7.84288 0.991672C7.81663 1.00042 7.79329 1.00917 7.76996 1.02084C7.74371 1.02959 7.72038 1.04125 7.69704 1.05001C7.25371 1.24542 6.84829 1.52542 6.48371 1.89292L5.23829 3.13542C5.16538 3.20834 5.10996 3.29 5.07496 3.38042C5.04288 3.465 5.02538 3.55251 5.02538 3.65167C5.02538 3.74792 5.04288 3.83834 5.07496 3.92292C5.10996 4.01042 5.16538 4.09209 5.23829 4.16792C5.31413 4.24084 5.39579 4.29625 5.48329 4.33125C5.56788 4.36334 5.65829 4.38084 5.75454 4.38084C5.85371 4.38084 5.94413 4.36334 6.02579 4.33125C6.11621 4.29625 6.19788 4.24084 6.27079 4.16792L7.51329 2.92251C7.76121 2.67459 8.03246 2.49084 8.32704 2.36834C8.62163 2.24584 8.94538 2.18751 9.29538 2.18751C9.64246 2.18751 9.96621 2.24584 10.2608 2.36834C10.5554 2.49084 10.8266 2.67459 11.0745 2.92251C11.3225 3.17042 11.5062 3.44167 11.6287 3.73626C11.7512 4.03084 11.8125 4.35167 11.8125 4.70459C11.8125 5.05459 11.7512 5.37542 11.6287 5.67C11.5062 5.96459 11.3225 6.23584 11.0745 6.48375ZM2.36829 8.32709C2.49079 8.03251 2.67454 7.76125 2.92246 7.51334L4.16788 6.27084C4.24079 6.19792 4.29621 6.11625 4.33121 6.02584C4.36329 5.94126 4.38079 5.85375 4.38079 5.75459C4.38079 5.65834 4.36329 5.56792 4.33121 5.48334C4.29621 5.39584 4.24079 5.31417 4.16788 5.23834C3.99579 5.06917 3.82371 4.98167 3.65163 4.98167C3.47954 4.98167 3.30746 5.06917 3.13538 5.23834L1.89288 6.48375C1.52538 6.85125 1.24538 7.25376 1.04996 7.69709C1.04121 7.72042 1.02954 7.74375 1.02079 7.77C1.00913 7.79334 1.00038 7.81667 0.991626 7.84292C0.816626 8.29209 0.729126 8.77625 0.729126 9.29542C0.729126 9.81167 0.816626 10.2958 0.991626 10.7479C1.00038 10.7713 1.00913 10.7946 1.02079 10.8208C1.02954 10.8442 1.04121 10.8675 1.04996 10.8908C1.24538 11.3342 1.52538 11.7396 1.89288 12.1042C2.25746 12.4717 2.66288 12.7517 3.10621 12.9471C3.12954 12.9558 3.15288 12.9675 3.17913 12.9763C3.20246 12.9879 3.22579 12.9967 3.25204 13.0054C3.70121 13.1804 4.18538 13.2708 4.70454 13.2708C5.22079 13.2708 5.70496 13.1804 6.15413 13.0054C6.18038 12.9967 6.20371 12.9879 6.22704 12.9763C6.25329 12.9675 6.27663 12.9558 6.29996 12.9471C6.74329 12.7517 7.14871 12.4717 7.51329 12.1042L8.75871 10.8617C8.83163 10.7888 8.88704 10.7071 8.92204 10.6167C8.95413 10.5321 8.97163 10.4446 8.97163 10.3454C8.97163 10.2492 8.95413 10.1588 8.92204 10.0742C8.88704 9.98667 8.83163 9.905 8.75871 9.82917C8.58663 9.66 8.41454 9.5725 8.24246 9.5725C8.07038 9.5725 7.89829 9.66 7.72621 9.82917L6.48371 11.0746C6.23579 11.3225 5.96454 11.5063 5.66996 11.6288C5.37538 11.7513 5.05163 11.8125 4.70454 11.8125C4.35454 11.8125 4.03079 11.7513 3.73621 11.6288C3.44163 11.5063 3.17038 11.3225 2.92246 11.0746C2.67454 10.8267 2.49079 10.5554 2.36829 10.2608C2.24579 9.96625 2.18746 9.64542 2.18746 9.29542C2.18746 8.9425 2.24579 8.62167 2.36829 8.32709Z" fill="rgb(255,255,255)" fill-opacity="0" fill-rule="evenodd" />
	<path id="path6" d="M8.26869 4.72209C8.22203 4.75125 8.18119 4.78625 8.14036 4.82417L4.82411 8.14042C4.78619 8.18125 4.75119 8.225 4.72203 8.26875C4.69869 8.30375 4.68119 8.34167 4.66369 8.3825C4.64619 8.42625 4.63161 8.47292 4.62286 8.51959C4.61411 8.56334 4.60828 8.61 4.60828 8.65667C4.60828 8.70334 4.61411 8.75 4.62286 8.79667C4.63161 8.84334 4.64619 8.89 4.66369 8.93375C4.68119 8.97167 4.69869 9.00959 4.72203 9.04459C4.75119 9.09125 4.78619 9.135 4.82411 9.17292C4.86203 9.21084 4.90578 9.24584 4.95244 9.275C4.98744 9.29834 5.02536 9.31584 5.06328 9.33334C5.10994 9.35084 5.15369 9.36542 5.20036 9.37417C5.24703 9.38292 5.29369 9.38875 5.34036 9.38875C5.38703 9.38875 5.43369 9.38292 5.47744 9.37417C5.52411 9.36542 5.57078 9.35084 5.61453 9.33334C5.65536 9.31584 5.69328 9.29834 5.72828 9.275C5.77203 9.24584 5.81578 9.21084 5.85661 9.17292L9.17286 5.85667C9.21078 5.81584 9.24578 5.775 9.27494 5.72834C9.29827 5.69334 9.31578 5.65542 9.33328 5.61459C9.35078 5.57084 9.36536 5.52417 9.37411 5.4775C9.38286 5.43375 9.38869 5.38709 9.38869 5.34042C9.38869 5.29375 9.38286 5.24709 9.37411 5.20042C9.36536 5.15375 9.35078 5.11 9.33328 5.06334C9.31578 5.02542 9.29827 4.9875 9.27494 4.9525C9.24578 4.90584 9.21078 4.86209 9.17286 4.82417C9.13203 4.78625 9.09119 4.75125 9.04453 4.72209C9.00953 4.69875 8.97161 4.68125 8.93369 4.66375C8.88703 4.64625 8.84328 4.63167 8.79661 4.62292C8.74994 4.61417 8.70328 4.60834 8.65661 4.60834C8.60994 4.60834 8.56328 4.61417 8.51953 4.62292C8.47286 4.63167 8.42619 4.64625 8.38244 4.66375C8.34161 4.68125 8.30369 4.69875 8.26869 4.72209Z" fill="rgb(255,255,255)" fill-opacity="0" fill-rule="evenodd" />
</svg>
