<svg viewBox="0 0 14 14" xmlns="http://www.w3.org/2000/svg" xmlns:xlink="http://www.w3.org/1999/xlink" width="14.000000" height="14.000000" fill="none">
	<defs>
		<linearGradient id="paint_custom_gradient_4">
			<stop stop-color="rgb(250,100,1)" offset="0.263296664" stop-opacity="1" />
			<stop stop-color="rgb(249.9,102.687,1)" offset="0.349490285" stop-opacity="1" />
			<stop stop-color="rgb(247,181,1)" offset="0.494946986" stop-opacity="1" />
			<stop stop-color="rgb(11,184,178)" offset="0.690560162" stop-opacity="1" />
			<stop stop-color="rgb(1,145,255)" offset="0.858591199" stop-opacity="1" />
			<stop stop-color="rgb(182,32,224)" offset="1" stop-opacity="1" />
		</linearGradient>
	</defs>
	<rect id="列表1" width="14.000000" height="14.000000" x="0.000000" y="0.000000" fill="rgb(0,0,0)" fill-opacity="0" />
	<g id="ic_public_lists-列表/base/ic_public_lists">
		<path id="合并" d="M6.25002 11.6028L13.25 11.6028L13.25 12.8028L6.25002 12.8028L6.25002 11.6028ZM6.25002 6.59998L13.25 6.59998L13.25 7.79998L6.25002 7.79998L6.25002 6.59998ZM6.25002 1.16789L9.75002 1.16789L13.25 1.16789L13.25 2.36789L9.75002 2.36789L6.25002 2.36789L6.25002 1.16789ZM6.27002 12.7828L6.25002 12.8028C5.91402 12.8028 5.65002 12.5388 5.65002 12.2028C5.65002 11.8668 5.91402 11.6028 6.25002 11.6028L6.27002 11.6228L6.27002 12.7828ZM13.23 11.6228L13.25 11.6028C13.586 11.6028 13.85 11.8668 13.85 12.2028C13.85 12.5388 13.586 12.8028 13.25 12.8028L13.23 12.7828L13.23 11.6228ZM6.27002 7.77998L6.25002 7.79998C5.91402 7.79998 5.65002 7.53598 5.65002 7.19998C5.65002 6.86398 5.91402 6.59998 6.25002 6.59998L6.27002 6.61998L6.27002 7.77998ZM13.23 6.61998L13.25 6.59998C13.586 6.59998 13.85 6.86398 13.85 7.19998C13.85 7.53598 13.586 7.79998 13.25 7.79998L13.23 7.77998L13.23 6.61998ZM6.27002 2.34789L6.25002 2.36789C5.91402 2.36789 5.65002 2.10389 5.65002 1.76789C5.65002 1.43189 5.91402 1.16789 6.25002 1.16789L6.27002 1.18789L6.27002 2.34789ZM13.23 1.18789L13.25 1.16789C13.586 1.16789 13.85 1.43189 13.85 1.76789C13.85 2.10389 13.586 2.36789 13.25 2.36789L13.23 2.34789L13.23 1.18789Z" fill="rgb(25,25,25)" fill-rule="nonzero" />
	</g>
	<path id="path5" d="M0.956665 2.16999L2.23998 1.25999C2.23998 1.25999 2.23999 3.69999 2.24 5.25999" stroke="rgb(25,25,25)" stroke-linecap="round" stroke-linejoin="round" stroke-width="1.20000005" />
	<path id="path9" d="M0.75 10.1033C0.75 9.39412 1.28684 8.82001 1.95 8.82001L2.00614 8.82001C2.63772 8.82001 3.15 9.36785 3.15 10.0433C3.15 10.7187 2.59 11.13 2.12333 11.3867C1.65667 11.6433 1.49333 11.69 1.23667 11.9233C0.980001 12.1567 0.75 12.4133 0.75 12.5498L0.75 12.82L3.15 12.82" stroke="rgb(25,25,25)" stroke-linecap="round" stroke-linejoin="round" stroke-width="1.20000005" />
</svg>
