<svg viewBox="0 0 14 14" xmlns="http://www.w3.org/2000/svg" xmlns:xlink="http://www.w3.org/1999/xlink" width="14.000000" height="14.000000" fill="none">
	<defs>
		<linearGradient id="paint_custom_gradient_3">
			<stop stop-color="rgb(250,100,1)" offset="0.263296664" stop-opacity="1" />
			<stop stop-color="rgb(249.9,102.687,1)" offset="0.349490285" stop-opacity="1" />
			<stop stop-color="rgb(247,181,1)" offset="0.494946986" stop-opacity="1" />
			<stop stop-color="rgb(11,184,178)" offset="0.690560162" stop-opacity="1" />
			<stop stop-color="rgb(1,145,255)" offset="0.858591199" stop-opacity="1" />
			<stop stop-color="rgb(182,32,224)" offset="1" stop-opacity="1" />
		</linearGradient>
	</defs>
	<rect id="列表2" width="14.000000" height="14.000000" x="0.000000" y="0.000000" fill="rgb(0,0,0)" fill-opacity="0" />
	<g id="ic_public_lists-列表/base/ic_public_lists">
		<path id="合并" d="M4.9999 1.16791L12.9999 1.16791C13.3359 1.16791 13.5999 1.43191 13.5999 1.76791C13.5999 2.10391 13.3359 2.36791 12.9999 2.36791L8.9999 2.36791L4.9999 2.36791C4.6639 2.36791 4.3999 2.10391 4.3999 1.76791C4.3999 1.43191 4.6639 1.16791 4.9999 1.16791ZM0.749931 1.21088L1.74993 1.21088C2.08593 1.21088 2.34993 1.47488 2.34993 1.81088C2.34993 2.14688 2.08593 2.41088 1.74993 2.41088L0.749931 2.41088C0.413931 2.41088 0.149931 2.14688 0.149931 1.81088C0.149931 1.47488 0.413931 1.21088 0.749931 1.21088ZM4.9999 6.6L12.9999 6.6C13.3359 6.6 13.5999 6.864 13.5999 7.2C13.5999 7.536 13.3359 7.8 12.9999 7.8L4.9999 7.8C4.6639 7.8 4.3999 7.536 4.3999 7.2C4.3999 6.864 4.6639 6.6 4.9999 6.6ZM0.749948 6.6L1.74995 6.6C2.08595 6.6 2.34995 6.864 2.34995 7.2C2.34995 7.536 2.08595 7.8 1.74995 7.8L0.749948 7.8C0.413948 7.8 0.149948 7.536 0.149948 7.2C0.149948 6.864 0.413948 6.6 0.749948 6.6ZM4.9999 11.6028L12.9999 11.6028C13.3359 11.6028 13.5999 11.8668 13.5999 12.2028C13.5999 12.5388 13.3359 12.8028 12.9999 12.8028L4.9999 12.8028C4.6639 12.8028 4.3999 12.5388 4.3999 12.2028C4.3999 11.8668 4.6639 11.6028 4.9999 11.6028ZM0.749902 11.6287L1.7499 11.6287C2.0859 11.6287 2.3499 11.8927 2.3499 12.2287C2.3499 12.5647 2.0859 12.8287 1.7499 12.8287L0.749902 12.8287C0.413902 12.8287 0.149902 12.5647 0.149902 12.2287C0.149902 11.8927 0.413902 11.6287 0.749902 11.6287Z" fill="rgb(25,25,25)" fill-rule="evenodd" />
	</g>
</svg>
