<svg viewBox="0 0 14 14" xmlns="http://www.w3.org/2000/svg" xmlns:xlink="http://www.w3.org/1999/xlink" width="14.000000" height="14.000000" fill="none">
	<rect id="截图" width="14.000000" height="14.000000" x="0.000000" y="0.000000" />
	<g id="ic_public_cut-剪切/base/ic_public_cut">
		<path id="path1" d="M0.439095 6.99466C0.439095 5.96942 0.435506 4.94419 0.439095 3.91896C0.437032 3.42285 0.498009 2.92849 0.620561 2.44775C0.889172 1.43021 1.55198 0.826344 2.5685 0.592078C3.0782 0.481954 3.59879 0.430359 4.12019 0.438294C6.08624 0.438294 8.05247 0.438294 10.0189 0.438294C10.5155 0.435211 11.0106 0.492008 11.4937 0.607457C12.5409 0.863765 13.1694 1.52709 13.4088 2.57078C13.5164 3.06404 13.5678 3.56791 13.5621 4.07274C13.5621 6.05999 13.5621 8.0474 13.5621 10.035C13.5647 10.5268 13.5081 11.0172 13.3934 11.4954C13.1371 12.5432 12.4707 13.1686 11.427 13.408C10.9173 13.5177 10.3967 13.5693 9.87533 13.5618C7.91748 13.5618 5.9598 13.5618 4.00229 13.5618C3.50188 13.5659 3.00279 13.5099 2.5157 13.3952C1.46381 13.1389 0.832271 12.4725 0.593392 11.4237C0.47139 10.8905 0.439095 10.3559 0.439095 9.81661C0.439095 8.87613 0.439095 7.93548 0.439095 6.99466Z" fill="rgb(255,255,255)" fill-opacity="0" fill-rule="nonzero" />
		<path id="path1" d="M0.439095 3.91896C0.437032 3.42285 0.498009 2.92849 0.620561 2.44775C0.889172 1.43021 1.55198 0.826344 2.5685 0.592078C3.0782 0.481954 3.59879 0.430359 4.12019 0.438294C6.08624 0.438294 8.05247 0.438294 10.0189 0.438294C10.5155 0.435211 11.0106 0.492008 11.4937 0.607457C12.5409 0.863765 13.1694 1.52709 13.4088 2.57078C13.5164 3.06404 13.5678 3.56791 13.5621 4.07274C13.5621 6.05999 13.5621 8.0474 13.5621 10.035C13.5647 10.5268 13.5081 11.0172 13.3934 11.4954C13.1371 12.5432 12.4707 13.1686 11.427 13.408C10.9173 13.5177 10.3967 13.5693 9.87533 13.5618C7.91748 13.5618 5.9598 13.5618 4.00229 13.5618C3.50188 13.5659 3.00279 13.5099 2.5157 13.3952C1.46381 13.1389 0.832271 12.4725 0.593392 11.4237C0.47139 10.8905 0.439095 10.3559 0.439095 9.81661C0.439095 8.87613 0.439095 7.93548 0.439095 6.99466C0.439095 5.96942 0.435506 4.94419 0.439095 3.91896Z" fill-rule="nonzero" stroke="rgb(255,255,255)" stroke-opacity="0" stroke-width="0.875" />
		<path id="path2" d="M0.439095 3.91896C0.437032 3.42285 0.498009 2.92849 0.620561 2.44775C0.889172 1.43021 1.55198 0.826344 2.5685 0.592078C3.0782 0.481954 3.59879 0.430359 4.12019 0.438294C6.08624 0.438294 8.05247 0.438294 10.0189 0.438294C10.5155 0.435211 11.0106 0.492008 11.4937 0.607457C12.5409 0.863765 13.1694 1.52709 13.4088 2.57078C13.5164 3.06404 13.5678 3.56791 13.5621 4.07274C13.5621 6.05999 13.5621 8.0474 13.5621 10.035C13.5647 10.5268 13.5081 11.0172 13.3934 11.4954C13.1371 12.5432 12.4707 13.1686 11.427 13.408C10.9173 13.5177 10.3967 13.5693 9.87533 13.5618C7.91748 13.5618 5.9598 13.5618 4.00229 13.5618C3.50188 13.5659 3.00279 13.5099 2.5157 13.3952C1.46381 13.1389 0.832271 12.4725 0.593392 11.4237C0.47139 10.8905 0.439095 10.3559 0.439095 9.81661C0.439095 8.87613 0.439095 7.93548 0.439095 6.99466C0.439095 5.96942 0.435506 4.94419 0.439095 3.91896Z" opacity="0.200000003" fill-rule="nonzero" stroke="rgb(255,255,255)" stroke-opacity="0" stroke-width="0.875" />
		<circle id="path3" cx="7" cy="7" r="7" fill="rgb(255,255,255)" fill-opacity="0" />
		<path id="path4" d="M2.91667 0.875L2.91667 10.2083C2.91667 10.6916 3.30842 11.0833 3.79167 11.0833L8.75 11.0833M0.875 2.91667L2.91667 2.91667" fill-rule="evenodd" stroke="rgb(25,25,25)" stroke-linecap="round" stroke-linejoin="round" stroke-width="1.20000005" />
		<path id="path5" d="M5.25 2.91667L10.2083 2.91667C10.6916 2.91667 11.0833 3.30842 11.0833 3.79167L11.0833 13.125M11.0833 11.0833L13.125 11.0833" fill-rule="evenodd" stroke="rgb(25,25,25)" stroke-linecap="round" stroke-linejoin="round" stroke-width="1.20000005" />
		<line id="path6" x1="5.25074911" x2="5.83408213" y1="2.91665649" y2="2.91665649" stroke="rgb(25,25,25)" stroke-linecap="square" stroke-linejoin="round" stroke-width="0.875" />
		<line id="path7" x1="8.16741276" x2="8.75074577" y1="11.083374" y2="11.083374" stroke="rgb(25,25,25)" stroke-linecap="square" stroke-linejoin="round" stroke-width="0.875" />
		<path id="path8" d="M4.95837 3.20833L4.95837 2.625L10.2084 2.625C10.8527 2.625 11.375 3.14733 11.375 3.79167L11.375 10.7917L13.125 10.7917C13.2861 10.7917 13.4167 10.9222 13.4167 11.0833C13.4167 11.2444 13.2861 11.375 13.125 11.375L11.375 11.375L11.375 13.125C11.375 13.2861 11.2445 13.4167 11.0834 13.4167C10.9223 13.4167 10.7917 13.2861 10.7917 13.125L10.7917 3.79167C10.7917 3.4695 10.5305 3.20833 10.2084 3.20833L4.95837 3.20833Z" fill="rgb(255,255,255)" fill-opacity="0" fill-rule="nonzero" />
		<path id="path8" d="M4.95837 2.625L10.2084 2.625C10.8527 2.625 11.375 3.14733 11.375 3.79167L11.375 10.7917L13.125 10.7917C13.2861 10.7917 13.4167 10.9222 13.4167 11.0833C13.4167 11.2444 13.2861 11.375 13.125 11.375L11.375 11.375L11.375 13.125C11.375 13.2861 11.2445 13.4167 11.0834 13.4167C10.9223 13.4167 10.7917 13.2861 10.7917 13.125L10.7917 3.79167C10.7917 3.4695 10.5305 3.20833 10.2084 3.20833L4.95837 3.20833L4.95837 2.625Z" fill-rule="nonzero" stroke="rgb(255,255,255)" stroke-opacity="0" stroke-width="0.875" />
		<path id="path9" d="M0 0.583333L0 0L5.25 0C5.89433 0 6.41667 0.522334 6.41667 1.16667L6.41667 8.16667L8.16667 8.16667C8.32775 8.16667 8.45833 8.29725 8.45833 8.45833C8.45833 8.61942 8.32775 8.75 8.16667 8.75L6.41667 8.75L6.41667 10.5C6.41667 10.6611 6.28608 10.7917 6.125 10.7917C5.96392 10.7917 5.83333 10.6611 5.83333 10.5L5.83333 1.16667C5.83333 0.844501 5.57217 0.583333 5.25 0.583333L0 0.583333Z" fill="rgb(255,255,255)" fill-opacity="0" fill-rule="nonzero" transform="matrix(-1,0,0,-1,9.04163,11.375)" />
		<path id="path9" d="M0 0L5.25 0C5.89433 0 6.41667 0.522334 6.41667 1.16667L6.41667 8.16667L8.16667 8.16667C8.32775 8.16667 8.45833 8.29725 8.45833 8.45833C8.45833 8.61942 8.32775 8.75 8.16667 8.75L6.41667 8.75L6.41667 10.5C6.41667 10.6611 6.28608 10.7917 6.125 10.7917C5.96392 10.7917 5.83333 10.6611 5.83333 10.5L5.83333 1.16667C5.83333 0.844501 5.57217 0.583333 5.25 0.583333L0 0.583333L0 0Z" fill-rule="nonzero" stroke="rgb(255,255,255)" stroke-opacity="0" stroke-width="0.875" transform="matrix(-1,0,0,-1,9.04163,11.375)" />
	</g>
</svg>
