<svg viewBox="0 0 14 14" xmlns="http://www.w3.org/2000/svg" xmlns:xlink="http://www.w3.org/1999/xlink" width="14.000000" height="14.000000" fill="none">
	<rect id="下划线" width="14.000000" height="14.000000" x="0.000000" y="0.000000" />
	<g id="ic_public_underline-下划线/base/ic_public_setting">
		<path id="path1" d="M0.439095 6.99465C0.439095 5.96942 0.435506 4.94419 0.439095 3.91896C0.437032 3.42285 0.498009 2.92849 0.620561 2.44775C0.889172 1.43021 1.55198 0.826344 2.5685 0.592078C3.0782 0.481954 3.59879 0.430359 4.12019 0.438294C6.08624 0.438294 8.05247 0.438294 10.0189 0.438294C10.5155 0.435211 11.0106 0.492008 11.4937 0.607457C12.5409 0.863765 13.1694 1.52709 13.4088 2.57078C13.5164 3.06404 13.5678 3.5679 13.5621 4.07274C13.5621 6.05998 13.5621 8.04739 13.5621 10.035C13.5647 10.5268 13.5081 11.0172 13.3934 11.4954C13.1371 12.5432 12.4707 13.1686 11.427 13.408C10.9173 13.5177 10.3967 13.5693 9.87533 13.5618C7.91748 13.5618 5.9598 13.5618 4.00229 13.5618C3.50188 13.5659 3.00279 13.5099 2.5157 13.3952C1.46381 13.1389 0.832271 12.4725 0.593392 11.4237C0.47139 10.8905 0.439095 10.3559 0.439095 9.8166C0.439095 8.87612 0.439095 7.93547 0.439095 6.99465Z" fill="rgb(255,255,255)" fill-opacity="0" fill-rule="nonzero" />
		<path id="path1" d="M0.439095 3.91896C0.437032 3.42285 0.498009 2.92849 0.620561 2.44775C0.889172 1.43021 1.55198 0.826344 2.5685 0.592078C3.0782 0.481954 3.59879 0.430359 4.12019 0.438294C6.08624 0.438294 8.05247 0.438294 10.0189 0.438294C10.5155 0.435211 11.0106 0.492008 11.4937 0.607457C12.5409 0.863765 13.1694 1.52709 13.4088 2.57078C13.5164 3.06404 13.5678 3.5679 13.5621 4.07274C13.5621 6.05998 13.5621 8.04739 13.5621 10.035C13.5647 10.5268 13.5081 11.0172 13.3934 11.4954C13.1371 12.5432 12.4707 13.1686 11.427 13.408C10.9173 13.5177 10.3967 13.5693 9.87533 13.5618C7.91748 13.5618 5.9598 13.5618 4.00229 13.5618C3.50188 13.5659 3.00279 13.5099 2.5157 13.3952C1.46381 13.1389 0.832271 12.4725 0.593392 11.4237C0.47139 10.8905 0.439095 10.3559 0.439095 9.8166C0.439095 8.87612 0.439095 7.93547 0.439095 6.99465C0.439095 5.96942 0.435506 4.94419 0.439095 3.91896Z" fill-rule="nonzero" stroke="rgb(255,255,255)" stroke-opacity="0" stroke-width="0.875" />
		<path id="path2" d="M0.439095 3.91896C0.437032 3.42285 0.498009 2.92849 0.620561 2.44775C0.889172 1.43021 1.55198 0.826344 2.5685 0.592078C3.0782 0.481954 3.59879 0.430359 4.12019 0.438294C6.08624 0.438294 8.05247 0.438294 10.0189 0.438294C10.5155 0.435211 11.0106 0.492008 11.4937 0.607457C12.5409 0.863765 13.1694 1.52709 13.4088 2.57078C13.5164 3.06404 13.5678 3.5679 13.5621 4.07274C13.5621 6.05998 13.5621 8.04739 13.5621 10.035C13.5647 10.5268 13.5081 11.0172 13.3934 11.4954C13.1371 12.5432 12.4707 13.1686 11.427 13.408C10.9173 13.5177 10.3967 13.5693 9.87533 13.5618C7.91748 13.5618 5.9598 13.5618 4.00229 13.5618C3.50188 13.5659 3.00279 13.5099 2.5157 13.3952C1.46381 13.1389 0.832271 12.4725 0.593392 11.4237C0.47139 10.8905 0.439095 10.3559 0.439095 9.8166C0.439095 8.87612 0.439095 7.93547 0.439095 6.99465C0.439095 5.96942 0.435506 4.94419 0.439095 3.91896Z" opacity="0.200000003" fill-rule="nonzero" stroke="rgb(255,255,255)" stroke-opacity="0" stroke-width="0.875" />
		<circle id="path3" cx="7" cy="7" r="7" fill="rgb(255,255,255)" fill-opacity="0" />
		<path id="path4" d="M10.7917 0.75L10.7917 6.58333C10.7917 8.8385 9.09412 10.6667 7.00004 10.6667C4.90596 10.6667 3.20837 8.8385 3.20837 6.58333L3.20837 0.75" fill-rule="evenodd" stroke="rgb(25,25,25)" stroke-linecap="round" stroke-linejoin="round" stroke-width="1.20000005" />
		<line id="path5" x1="3.20845389" x2="11.0834541" y1="13.25" y2="13.25" stroke="rgb(25,25,25)" stroke-linecap="round" stroke-linejoin="round" stroke-width="1.20000005" />
		<path id="path6" d="M11.0813 1.13265L11.0833 1.16667L11.0833 7C11.0833 9.41162 9.26015 11.375 6.99996 11.375C4.76951 11.375 2.96468 9.46294 2.91757 7.09496L2.91663 7L2.91663 1.16667C2.91663 1.00558 3.04721 0.875 3.20829 0.875C3.35787 0.875 3.48115 0.987595 3.498 1.13265L3.49996 1.16667L3.49996 7C3.49996 9.09871 5.07199 10.7917 6.99996 10.7917C8.89915 10.7917 10.453 9.14887 10.4989 7.0937L10.5 7L10.5 1.16667C10.5 1.00558 10.6305 0.875 10.7916 0.875C10.9412 0.875 11.0645 0.987595 11.0813 1.13265Z" fill-rule="nonzero" stroke="rgb(25,25,25)" stroke-opacity="0" stroke-linecap="round" stroke-linejoin="round" stroke-width="0.875" />
		<path id="path7" d="M11.375 12.8333C11.375 12.9829 11.2624 13.1062 11.1173 13.123L11.0833 13.125L3.20829 13.125C3.04721 13.125 2.91663 12.9944 2.91663 12.8333C2.91663 12.6838 3.02922 12.5605 3.17428 12.5436L3.20829 12.5417L11.0833 12.5417C11.2444 12.5417 11.375 12.6723 11.375 12.8333Z" fill-rule="nonzero" stroke="rgb(25,25,25)" stroke-opacity="0" stroke-linecap="round" stroke-linejoin="round" stroke-width="0.875" />
	</g>
</svg>
