<svg viewBox="0 0 14 14" xmlns="http://www.w3.org/2000/svg" xmlns:xlink="http://www.w3.org/1999/xlink" width="14.000000" height="14.000000" fill="none">
	<rect id="视频" width="14.000000" height="14.000000" x="0.000000" y="0.000000" />
	<g id="ic_huawei_cloud_vcm-视频内容/base/ic_huawei_cloud_vcm">
		<path id="path5" d="M2.44845 0.793335L11.5516 0.793335C12.4656 0.793335 13.2067 1.67086 13.2067 2.75333L13.2067 11.2467C13.2067 12.3291 12.4656 13.2067 11.5516 13.2067L2.44845 13.2067C1.53435 13.2067 0.793335 12.3291 0.793335 11.2467L0.793335 2.75333C0.793335 1.67086 1.53435 0.793335 2.44845 0.793335Z" fill="rgb(255,255,255)" fill-opacity="0" fill-rule="evenodd" />
		<path id="path5" d="M11.5516 0.793335C12.4656 0.793335 13.2067 1.67086 13.2067 2.75333L13.2067 11.2467C13.2067 12.3291 12.4656 13.2067 11.5516 13.2067L2.44845 13.2067C1.53435 13.2067 0.793335 12.3291 0.793335 11.2467L0.793335 2.75333C0.793335 1.67086 1.53435 0.793335 2.44845 0.793335L11.5516 0.793335Z" fill-rule="evenodd" stroke="rgb(25,25,25)" stroke-linejoin="round" stroke-width="1.20000005" />
		<path id="path6" d="M3.79971 2.00003C3.79971 6.56945 3.79971 12 3.79971 12M2 5.34894L3.79971 5.34894M2 9.04888L3.79971 9.04888M10.2003 2.00002C10.2003 6.56944 10.2003 12 10.2003 12M10.2003 5.34893L12 5.34893M10.2003 9.04886L12 9.04889" stroke="rgb(25,25,25)" stroke-linecap="square" stroke-width="1.20000005" />
		<path id="path7" d="M1.20251 0.131439L1.96631 1.59011C2.03342 1.71828 1.99715 1.88453 1.88529 1.96143C1.84859 1.98667 1.80658 2 1.76377 2L0.23619 2C0.105746 2 0 1.87883 0 1.72936C0 1.68031 0.0116344 1.63218 0.0336588 1.59011L0.797451 0.131439C0.864564 0.00326803 1.00965 -0.0382932 1.1215 0.038609C1.15474 0.061465 1.18257 0.0933456 1.20251 0.131439Z" fill="rgb(255,255,255)" fill-opacity="0" fill-rule="evenodd" transform="matrix(0,1,-1,0,8,6.00002)" />
		<path id="path7" d="M1.96631 1.59011C2.03342 1.71828 1.99715 1.88453 1.88529 1.96143C1.84859 1.98667 1.80658 2 1.76377 2L0.23619 2C0.105746 2 0 1.87883 0 1.72936C0 1.68031 0.0116344 1.63218 0.0336588 1.59011L0.797451 0.131439C0.864564 0.00326803 1.00965 -0.0382932 1.1215 0.038609C1.15474 0.061465 1.18257 0.0933456 1.20251 0.131439L1.96631 1.59011Z" fill-rule="evenodd" stroke="rgb(25,25,25)" stroke-linejoin="round" stroke-width="1.20000005" transform="matrix(0,1,-1,0,8,6.00002)" />
	</g>
</svg>
